<svg id="svg" version="1.1" xmlns="http://www.w3.org/2000/svg" xmlns:xlink="http://www.w3.org/1999/xlink" width="400" height="400" viewBox="0, 0, 400,400"><g id="svgg"><path id="path0" d="M208.393 64.413 C 207.910 65.316,205.485 72.983,204.588 76.447 C 203.810 79.448,203.724 79.372,208.551 79.941 C 217.512 80.996,217.138 81.103,218.181 77.200 C 218.564 75.770,219.399 73.281,220.038 71.670 C 221.607 67.714,221.659 67.841,217.900 66.486 C 211.164 64.056,208.854 63.553,208.393 64.413 M210.541 66.889 C 210.330 68.188,210.233 68.290,209.709 67.766 C 209.252 67.310,208.986 67.279,208.558 67.635 C 207.895 68.185,207.801 67.559,208.449 66.911 C 208.696 66.664,209.146 66.558,209.449 66.674 C 209.752 66.790,210.000 66.676,210.000 66.419 C 210.000 66.163,209.820 66.064,209.600 66.200 C 209.040 66.546,209.100 65.860,209.680 65.280 C 210.419 64.541,210.804 65.263,210.541 66.889 M209.200 69.786 C 209.200 70.627,208.249 71.600,207.426 71.600 C 206.944 71.600,207.233 70.227,207.862 69.531 C 208.767 68.532,209.200 68.614,209.200 69.786 M215.090 72.004 C 215.761 74.911,215.502 75.776,213.531 77.204 C 212.170 78.190,210.400 78.794,210.400 78.273 C 210.400 78.204,210.206 77.099,209.970 75.818 L 209.539 73.489 211.465 71.534 C 213.859 69.103,214.438 69.178,215.090 72.004 M187.600 77.800 C 187.874 78.130,188.278 78.400,188.498 78.400 C 188.721 78.400,188.678 78.135,188.400 77.800 C 188.126 77.470,187.722 77.200,187.502 77.200 C 187.279 77.200,187.322 77.465,187.600 77.800 M194.000 79.800 C 195.310 80.549,195.821 80.549,195.200 79.800 C 194.926 79.470,194.319 79.206,193.851 79.214 C 193.049 79.228,193.058 79.262,194.000 79.800 M134.800 84.977 C 132.490 85.477,128.845 86.198,126.700 86.580 C 124.214 87.022,122.800 87.455,122.800 87.775 C 122.800 88.050,123.317 90.868,123.948 94.038 C 124.579 97.207,125.498 102.050,125.990 104.800 C 127.091 110.962,127.540 112.800,127.943 112.800 C 128.114 112.800,129.187 112.523,130.327 112.185 L 132.400 111.569 132.400 107.185 L 132.400 102.800 131.262 102.800 C 129.786 102.800,128.719 101.592,128.723 99.924 C 128.725 98.875,131.401 92.466,132.149 91.717 C 132.244 91.623,133.104 92.143,134.061 92.873 C 135.017 93.603,136.644 94.734,137.675 95.386 C 140.354 97.081,141.160 99.224,139.669 100.684 C 138.628 101.704,138.888 110.222,139.946 109.772 C 140.306 109.619,141.363 109.308,142.297 109.080 L 143.993 108.667 142.997 107.360 C 141.717 105.682,141.737 104.297,143.023 105.583 C 143.552 106.112,144.236 105.594,144.583 104.400 L 144.874 103.400 144.215 104.299 C 143.591 105.150,143.494 105.166,142.368 104.584 C 140.388 103.559,141.119 100.424,143.343 100.406 C 143.840 100.402,144.009 100.598,143.855 101.000 C 143.729 101.330,143.802 101.600,144.017 101.600 C 144.589 101.600,144.143 99.137,142.152 91.314 C 141.188 87.527,140.400 84.332,140.400 84.214 C 140.400 83.861,139.213 84.023,134.800 84.977 M126.708 89.284 C 127.388 90.404,127.125 91.285,126.345 90.505 C 125.781 89.941,124.800 90.304,124.800 91.076 C 124.800 91.401,124.575 91.588,124.300 91.491 C 123.821 91.323,123.771 88.933,124.219 87.654 C 124.477 86.916,125.796 87.779,126.708 89.284 M199.396 90.138 C 200.887 92.414,198.564 93.106,195.600 91.269 C 193.253 89.814,191.997 89.556,190.068 90.132 C 187.662 90.849,188.598 91.524,192.217 91.680 C 196.334 91.858,195.953 95.600,191.818 95.600 C 190.572 95.600,190.400 95.721,190.400 96.600 C 190.400 100.296,186.484 99.545,185.999 95.755 L 185.749 93.800 184.098 97.129 C 182.129 101.101,182.196 101.417,185.095 101.859 C 187.079 102.161,188.613 103.200,187.075 103.200 C 186.575 103.200,186.632 103.895,187.446 107.700 C 189.489 117.248,191.187 118.546,199.400 116.838 C 202.821 116.126,204.007 116.218,203.432 117.148 C 203.290 117.378,201.739 117.875,199.987 118.251 C 196.449 119.012,196.562 118.834,197.326 122.439 C 198.092 126.056,197.969 126.001,205.149 125.996 L 211.400 125.992 212.497 122.496 C 213.100 120.573,213.708 118.235,213.848 117.300 C 213.988 116.365,214.259 115.600,214.451 115.600 C 215.346 115.600,214.525 120.676,213.076 124.100 C 212.310 125.909,212.795 126.034,216.422 124.956 C 220.108 123.862,220.022 124.023,220.117 118.051 L 220.200 112.800 218.289 112.547 C 216.230 112.274,213.994 110.263,211.613 106.542 C 210.780 105.239,210.413 104.961,209.903 105.247 C 208.312 106.136,208.902 104.598,210.885 102.682 C 212.071 101.537,213.807 99.579,214.745 98.332 L 216.448 96.063 215.633 94.532 C 213.976 91.418,213.875 91.363,211.919 92.509 C 209.428 93.969,208.925 94.698,208.408 97.600 C 207.569 102.316,207.759 101.965,206.098 101.860 L 204.600 101.765 204.400 97.583 C 204.199 93.389,202.604 89.615,201.023 89.595 C 200.790 89.592,200.173 89.475,199.652 89.335 C 198.712 89.084,198.710 89.091,199.396 90.138 M127.873 93.452 C 127.721 94.937,127.112 95.584,125.857 95.594 C 125.360 95.598,125.191 95.402,125.345 95.000 C 125.485 94.635,125.345 94.400,124.987 94.400 C 124.209 94.400,124.229 92.822,125.022 91.690 C 126.049 90.224,128.076 91.476,127.873 93.452 M187.600 92.774 C 187.600 93.569,188.400 95.200,188.790 95.200 C 189.243 95.200,189.335 94.016,188.957 93.033 C 188.698 92.357,187.600 92.148,187.600 92.774 M190.319 93.889 C 190.506 94.866,190.559 94.897,190.835 94.189 C 191.289 93.028,191.259 92.800,190.655 92.800 C 190.278 92.800,190.175 93.135,190.319 93.889 M213.933 94.482 C 214.902 96.012,214.596 96.920,213.570 95.560 L 212.853 94.610 211.800 95.600 C 210.922 96.424,210.789 96.815,211.000 97.941 C 211.200 99.007,211.067 99.490,210.369 100.233 C 209.314 101.356,208.432 101.070,209.457 99.937 C 209.933 99.411,210.130 98.649,210.056 97.622 C 209.966 96.383,210.188 95.814,211.214 94.645 C 212.763 92.881,212.913 92.872,213.933 94.482 M187.360 95.760 C 187.199 96.180,187.347 96.719,187.731 97.102 C 188.317 97.689,188.393 97.684,188.640 97.040 C 188.801 96.620,188.653 96.081,188.269 95.698 C 187.683 95.111,187.607 95.116,187.360 95.760 M133.990 99.026 C 133.527 100.245,133.509 113.756,133.967 116.544 C 134.236 118.182,134.578 118.738,136.143 120.075 C 137.164 120.948,138.000 121.828,138.000 122.031 C 138.000 122.664,137.014 122.435,136.551 121.694 C 134.942 119.116,127.672 117.442,125.785 119.214 C 123.968 120.922,125.388 122.619,128.395 122.332 C 129.278 122.248,130.000 122.306,130.000 122.462 C 130.000 122.618,130.372 122.864,130.826 123.008 C 132.087 123.409,134.243 125.456,134.788 126.771 C 135.138 127.616,136.333 128.577,139.037 130.191 C 142.603 132.319,143.306 132.960,142.410 133.267 C 141.418 133.606,142.505 135.260,143.554 135.008 C 147.950 133.951,152.585 130.555,152.176 128.692 C 152.010 127.936,152.061 127.591,152.315 127.748 C 152.913 128.117,153.212 126.996,153.470 123.418 C 153.663 120.752,153.611 120.286,153.171 120.700 C 152.282 121.537,150.450 121.286,149.340 120.176 C 148.404 119.240,148.257 119.206,147.626 119.776 C 145.219 121.955,142.799 118.829,143.852 114.900 C 144.333 113.106,145.198 113.861,144.998 115.900 C 144.872 117.184,144.914 117.476,145.130 116.800 C 145.411 115.916,145.665 115.803,147.321 115.825 C 148.800 115.845,149.243 115.695,149.427 115.116 C 150.291 112.394,147.082 109.179,144.748 110.428 C 144.169 110.738,143.794 110.727,143.388 110.390 C 141.976 109.218,138.952 110.609,140.200 111.857 C 140.530 112.187,140.800 112.644,140.800 112.871 C 140.800 113.099,140.530 113.182,140.200 113.055 C 139.814 112.907,139.600 113.064,139.600 113.493 C 139.600 113.965,139.475 114.035,139.174 113.734 C 138.939 113.499,138.600 110.795,138.421 107.725 C 138.188 103.739,137.896 101.751,137.399 100.772 C 135.936 97.886,134.670 97.238,133.990 99.026 M191.798 107.599 C 193.304 108.172,192.636 108.875,190.869 108.577 C 188.627 108.200,188.000 107.981,188.000 107.573 C 188.000 107.079,190.474 107.096,191.798 107.599 M150.132 110.254 C 149.795 110.392,149.847 110.766,150.318 111.586 C 150.986 112.750,150.969 112.959,149.835 117.600 C 149.640 118.402,149.680 118.374,150.041 117.462 C 150.444 116.446,150.654 116.340,152.014 116.470 C 153.419 116.604,153.555 116.526,153.768 115.458 C 154.188 113.361,154.015 112.735,152.640 111.360 C 151.286 110.006,151.023 109.890,150.132 110.254 M146.000 117.600 C 146.000 119.031,147.074 119.244,148.171 118.032 C 148.834 117.300,148.829 117.243,148.059 116.832 C 146.627 116.065,146.000 116.299,146.000 117.600 M150.945 117.800 C 150.591 118.721,151.087 119.600,151.960 119.600 C 152.772 119.600,153.442 118.316,153.002 117.604 C 152.622 116.988,151.204 117.123,150.945 117.800 M145.400 120.726 C 149.022 121.336,149.218 121.412,147.474 121.523 C 145.096 121.675,141.560 120.973,140.553 120.150 C 139.822 119.552,139.823 119.542,140.600 119.794 C 141.040 119.936,143.200 120.356,145.400 120.726 M142.591 122.796 C 144.385 123.664,147.105 126.229,146.681 126.652 C 146.535 126.798,145.592 126.157,144.584 125.228 C 143.576 124.299,142.133 123.280,141.376 122.964 C 140.619 122.648,140.000 122.302,140.000 122.195 C 140.000 121.793,141.000 122.025,142.591 122.796 M193.615 123.985 C 191.629 125.971,191.598 126.771,193.436 128.609 C 195.221 130.394,195.958 130.279,197.087 128.042 L 197.974 126.284 196.987 125.111 C 196.444 124.466,196.000 123.693,196.000 123.393 C 196.000 122.229,195.163 122.437,193.615 123.985 M221.301 123.339 C 220.258 125.628,215.885 126.749,206.753 127.069 C 198.820 127.348,199.569 126.933,200.471 130.549 L 200.857 132.098 207.929 131.896 C 215.347 131.683,217.208 131.333,221.366 129.364 C 225.811 127.259,226.364 125.453,223.244 123.232 C 221.796 122.200,221.820 122.199,221.301 123.339 M192.226 129.507 C 191.831 129.903,191.983 131.542,192.442 131.826 C 192.685 131.976,193.214 132.837,193.618 133.739 L 194.352 135.379 194.773 134.272 C 195.772 131.643,195.733 131.429,194.048 130.326 C 193.170 129.751,192.350 129.383,192.226 129.507 M151.787 131.613 C 150.213 133.256,147.999 134.497,144.312 135.802 C 141.477 136.806,141.258 136.961,141.648 137.690 C 142.727 139.706,153.600 133.581,153.600 130.957 C 153.600 130.093,153.054 130.291,151.787 131.613 M200.281 135.000 C 200.360 136.100,200.523 138.120,200.643 139.489 L 200.861 141.978 203.327 139.926 C 205.545 138.080,209.154 136.019,210.200 136.001 C 210.420 135.997,210.985 135.320,211.455 134.497 L 212.309 133.000 206.224 133.000 L 200.138 133.000 200.281 135.000 M197.240 142.676 C 197.218 143.378,197.028 144.059,196.817 144.189 C 196.607 144.319,196.542 144.704,196.672 145.044 C 197.212 146.450,198.049 144.679,197.650 142.976 C 197.288 141.432,197.280 141.426,197.240 142.676 M192.814 158.292 C 192.833 158.684,194.369 160.448,195.352 161.205 C 196.128 161.803,196.012 159.534,195.223 158.685 C 194.815 158.246,192.797 157.917,192.814 158.292 M192.400 162.689 C 192.400 163.192,193.543 164.190,193.812 163.921 C 193.918 163.815,193.644 163.402,193.202 163.002 C 192.761 162.603,192.400 162.462,192.400 162.689 M193.200 180.725 C 193.200 180.904,193.740 181.568,194.400 182.200 C 195.707 183.452,196.080 182.864,194.977 181.289 C 194.377 180.431,193.200 180.058,193.200 180.725 M192.400 184.668 C 192.400 185.179,193.935 186.598,194.201 186.332 C 194.309 186.225,193.948 185.714,193.398 185.199 C 192.849 184.683,192.400 184.444,192.400 184.668 M223.598 204.374 C 218.045 207.739,216.099 208.800,215.485 208.800 C 214.484 208.800,214.256 209.578,215.012 210.414 C 215.686 211.158,215.749 211.137,217.552 209.548 C 219.428 207.893,222.413 206.130,222.385 206.692 C 222.376 206.861,221.377 207.689,220.165 208.531 C 217.645 210.281,215.600 212.865,215.600 214.298 C 215.600 216.635,218.553 218.741,218.967 216.700 C 219.068 216.205,219.243 215.350,219.358 214.800 C 219.472 214.250,219.856 213.440,220.212 213.000 C 220.844 212.219,220.853 212.223,220.600 213.200 C 219.919 215.827,219.913 217.856,220.585 218.528 C 221.551 219.494,222.400 219.368,222.400 218.260 C 222.400 216.949,223.196 214.800,223.682 214.800 C 223.904 214.800,223.968 215.107,223.824 215.482 C 222.951 217.758,223.096 219.460,224.240 220.360 L 225.371 221.250 225.896 219.735 C 226.519 217.937,227.461 216.836,227.039 218.400 C 226.222 221.425,226.270 221.820,227.590 222.930 C 229.305 224.374,231.608 224.482,230.687 223.076 C 230.073 222.139,230.184 220.000,230.847 220.000 C 231.041 220.000,231.200 220.169,231.200 220.377 C 231.200 220.983,234.746 217.582,235.667 216.092 L 236.509 214.730 233.918 212.065 C 230.503 208.553,228.555 206.069,227.803 204.269 C 227.036 202.434,226.790 202.440,223.598 204.374 M232.305 208.666 C 234.587 211.419,238.706 215.200,239.423 215.200 C 240.286 215.200,240.119 214.492,239.132 213.964 C 238.655 213.708,236.540 211.949,234.432 210.054 C 231.110 207.067,230.827 206.882,232.305 208.666 M225.000 225.786 C 224.340 226.088,224.081 226.350,224.424 226.368 C 224.766 226.385,225.396 226.136,225.824 225.813 C 226.788 225.083,226.551 225.076,225.000 225.786 M219.209 234.713 C 219.180 236.389,221.521 239.412,222.269 238.665 C 222.379 238.555,222.078 238.256,221.600 238.000 C 221.123 237.745,220.391 236.785,219.975 235.868 C 219.558 234.950,219.214 234.431,219.209 234.713 M220.265 240.647 C 218.538 241.583,219.249 241.721,221.242 240.837 C 222.315 240.361,222.688 240.052,222.200 240.044 C 221.760 240.038,220.889 240.309,220.265 240.647 " stroke="none" fill="#d5b39f" fill-rule="evenodd"></path><path id="path1" d="M186.739 77.774 C 186.180 79.000,186.542 80.000,187.545 80.000 C 188.685 80.000,188.977 78.799,188.002 78.117 C 187.554 77.802,187.290 77.378,187.417 77.173 C 187.544 76.968,187.543 76.800,187.415 76.800 C 187.287 76.800,186.983 77.239,186.739 77.774 M189.600 78.176 C 189.600 78.569,189.949 78.711,190.700 78.622 C 192.245 78.438,192.302 78.388,191.400 78.000 C 190.190 77.480,189.600 77.538,189.600 78.176 M192.500 79.065 C 190.921 79.702,193.163 81.920,194.846 81.385 C 195.935 81.040,195.776 80.570,194.373 79.989 C 193.482 79.620,193.290 79.389,193.673 79.146 C 194.276 78.764,193.397 78.703,192.500 79.065 M196.368 79.528 C 196.568 79.887,197.153 80.185,197.666 80.190 C 199.107 80.205,198.959 81.794,197.515 81.818 C 195.465 81.853,195.960 82.311,198.531 82.759 C 208.060 84.418,216.914 85.190,226.500 85.196 L 232.400 85.200 232.400 83.600 L 232.400 82.000 223.700 81.997 C 212.973 81.993,207.971 81.442,196.701 79.025 C 196.158 78.909,196.084 79.021,196.368 79.528 M189.200 80.409 C 189.200 80.573,189.650 80.793,190.200 80.898 C 190.750 81.003,191.200 80.955,191.200 80.791 C 191.200 80.627,190.750 80.407,190.200 80.302 C 189.650 80.197,189.200 80.245,189.200 80.409 M213.300 80.676 C 213.685 80.776,214.315 80.776,214.700 80.676 C 215.085 80.575,214.770 80.493,214.000 80.493 C 213.230 80.493,212.915 80.575,213.300 80.676 M204.566 99.200 C 204.599 101.741,204.624 101.800,205.673 101.818 C 206.263 101.828,206.653 101.686,206.539 101.502 C 206.426 101.318,205.997 101.274,205.586 101.404 C 204.921 101.616,204.823 101.366,204.686 99.121 L 204.533 96.600 204.566 99.200 M133.355 106.200 C 133.356 109.060,133.420 110.178,133.497 108.683 C 133.574 107.189,133.574 104.849,133.496 103.483 C 133.418 102.118,133.355 103.340,133.355 106.200 M138.531 108.600 C 138.533 110.140,138.605 110.721,138.692 109.891 C 138.779 109.061,138.777 107.801,138.689 107.091 C 138.600 106.381,138.529 107.060,138.531 108.600 M215.086 110.803 C 216.014 111.770,216.835 112.480,216.912 112.380 C 216.988 112.281,216.229 111.490,215.225 110.622 L 213.400 109.044 215.086 110.803 M144.428 117.076 C 144.413 117.558,144.580 118.064,144.800 118.200 C 145.273 118.492,145.273 118.101,144.800 117.000 C 144.469 116.229,144.455 116.231,144.428 117.076 M127.300 122.676 C 127.685 122.776,128.315 122.776,128.700 122.676 C 129.085 122.575,128.770 122.493,128.000 122.493 C 127.230 122.493,126.915 122.575,127.300 122.676 M144.153 124.158 C 144.271 124.962,145.231 126.028,145.621 125.787 C 145.802 125.675,146.136 125.902,146.363 126.292 C 146.590 126.681,146.781 126.797,146.788 126.549 C 146.795 126.301,146.530 125.874,146.200 125.600 C 145.870 125.326,145.600 125.236,145.600 125.400 C 145.600 125.564,145.332 125.476,145.004 125.204 C 144.677 124.932,144.500 124.562,144.611 124.382 C 144.722 124.202,144.646 123.952,144.442 123.826 C 144.237 123.699,144.107 123.849,144.153 124.158 M201.900 126.295 C 203.055 126.376,204.945 126.376,206.100 126.295 C 207.255 126.214,206.310 126.148,204.000 126.148 C 201.690 126.148,200.745 126.214,201.900 126.295 M208.305 127.083 C 208.802 127.179,209.522 127.175,209.905 127.075 C 210.287 126.975,209.880 126.896,209.000 126.901 C 208.120 126.905,207.807 126.987,208.305 127.083 M192.000 129.067 C 192.000 129.433,192.120 129.613,192.268 129.466 C 192.415 129.319,192.910 129.512,193.368 129.896 C 193.974 130.405,193.937 130.296,193.230 129.497 C 192.096 128.214,192.000 128.180,192.000 129.067 M151.381 133.700 L 149.800 135.400 151.500 133.819 C 153.081 132.348,153.384 132.000,153.081 132.000 C 153.016 132.000,152.251 132.765,151.381 133.700 M202.900 132.294 C 203.945 132.376,205.655 132.376,206.700 132.294 C 207.745 132.212,206.890 132.144,204.800 132.144 C 202.710 132.144,201.855 132.212,202.900 132.294 M192.034 136.280 C 191.979 142.916,193.514 148.384,193.690 142.180 C 193.838 136.980,193.721 135.803,192.874 133.957 L 192.067 132.200 192.034 136.280 M208.300 133.082 C 208.795 133.178,209.605 133.178,210.100 133.082 C 210.595 132.987,210.190 132.909,209.200 132.909 C 208.210 132.909,207.805 132.987,208.300 133.082 M200.114 135.400 C 200.117 136.500,200.195 136.903,200.287 136.295 C 200.379 135.686,200.377 134.786,200.282 134.295 C 200.187 133.803,200.111 134.300,200.114 135.400 M206.962 138.340 C 205.663 139.187,203.823 140.582,202.873 141.440 L 201.147 143.000 201.767 145.361 C 202.109 146.659,202.459 147.792,202.546 147.879 C 202.800 148.133,204.982 145.215,207.106 141.781 C 210.667 136.026,210.662 135.927,206.962 138.340 M196.400 147.637 C 195.410 148.951,194.612 150.064,194.626 150.113 C 195.544 153.198,195.692 153.207,199.520 150.419 L 201.240 149.166 199.949 147.483 C 199.239 146.557,198.555 145.676,198.429 145.525 C 198.303 145.374,197.390 146.324,196.400 147.637 M195.236 146.156 C 194.943 146.510,194.454 146.800,194.151 146.800 C 193.543 146.800,193.437 147.524,193.930 148.301 C 194.158 148.660,194.503 148.457,195.151 147.581 C 196.098 146.299,196.175 145.025,195.236 146.156 M192.255 158.889 C 191.745 160.792,191.986 162.074,193.004 162.874 C 193.556 163.309,193.895 163.847,193.756 164.070 C 193.612 164.304,193.817 164.417,194.239 164.336 C 195.728 164.049,196.340 162.067,195.223 161.150 C 194.686 160.708,193.853 159.815,193.373 159.163 C 192.507 157.989,192.497 157.987,192.255 158.889 M192.692 181.065 C 191.849 182.491,192.018 183.868,193.173 184.974 C 193.832 185.606,194.263 186.320,194.131 186.561 C 193.998 186.803,194.257 186.640,194.706 186.200 C 195.155 185.760,195.650 184.770,195.808 184.000 C 195.965 183.230,195.949 182.738,195.773 182.907 C 195.597 183.076,194.876 182.655,194.171 181.972 C 193.467 181.289,192.801 180.881,192.692 181.065 M197.461 203.520 C 197.332 204.334,197.112 207.430,196.971 210.400 L 196.716 215.800 198.935 218.461 C 202.337 222.542,206.669 222.813,218.200 219.670 C 219.482 219.320,219.513 218.528,218.238 218.706 C 216.960 218.884,214.165 215.363,214.497 213.992 C 214.554 213.757,213.624 213.215,212.430 212.788 C 208.281 211.301,204.331 208.732,200.948 205.320 L 197.696 202.040 197.461 203.520 M230.600 206.606 C 231.040 206.964,231.361 207.406,231.313 207.590 C 231.265 207.773,231.490 208.143,231.813 208.411 C 232.136 208.679,232.400 208.752,232.400 208.574 C 232.400 208.396,232.985 208.777,233.700 209.421 C 234.415 210.065,234.190 209.725,233.200 208.665 C 232.210 207.606,231.040 206.562,230.600 206.347 L 229.800 205.956 230.600 206.606 M219.569 207.700 C 219.227 208.820,219.318 209.200,219.828 208.777 C 220.138 208.520,220.293 208.150,220.172 207.955 C 219.965 207.620,219.636 207.481,219.569 207.700 M216.975 210.100 L 215.800 211.400 217.100 210.225 C 218.312 209.130,218.584 208.800,218.275 208.800 C 218.206 208.800,217.621 209.385,216.975 210.100 M234.783 211.700 C 235.764 212.745,236.619 213.600,236.683 213.600 C 236.984 213.600,236.666 213.241,234.900 211.583 L 233.000 209.800 234.783 211.700 M196.401 218.200 C 196.394 219.080,196.290 220.250,196.169 220.800 L 195.950 221.800 196.561 220.800 C 197.261 219.654,197.366 218.075,196.800 217.200 C 196.514 216.757,196.409 217.018,196.401 218.200 M226.819 225.180 C 226.500 225.382,226.067 225.441,225.857 225.312 C 225.648 225.182,225.595 225.269,225.741 225.504 C 225.886 225.739,225.779 226.023,225.502 226.134 C 225.163 226.271,225.194 226.337,225.600 226.339 C 226.777 226.343,229.534 224.862,228.400 224.836 C 227.850 224.823,227.139 224.978,226.819 225.180 M228.000 226.220 C 227.010 226.504,226.470 226.753,226.800 226.774 C 227.333 226.808,227.333 226.855,226.800 227.200 C 225.981 227.730,225.492 227.698,225.838 227.138 C 226.011 226.859,225.948 226.785,225.679 226.951 C 225.114 227.301,225.516 228.400,226.210 228.400 C 227.334 228.400,230.400 226.801,230.400 226.214 C 230.400 225.520,230.444 225.520,228.000 226.220 M223.632 227.257 C 223.614 227.619,223.870 228.018,224.200 228.145 C 224.572 228.287,224.800 228.143,224.800 227.764 C 224.800 227.428,224.635 227.255,224.434 227.379 C 224.233 227.503,223.977 227.379,223.866 227.102 C 223.737 226.782,223.652 226.838,223.632 227.257 M207.200 228.869 C 205.330 229.068,201.978 229.180,199.751 229.116 L 195.701 229.000 195.453 232.200 C 195.004 237.988,195.165 248.091,195.742 250.316 C 196.830 254.509,195.187 254.455,185.699 249.986 C 181.481 247.999,178.035 245.244,175.583 241.896 L 174.481 240.392 173.513 243.296 C 172.981 244.893,171.445 249.440,170.100 253.400 C 165.458 267.064,161.958 281.738,161.895 287.800 C 161.847 292.483,164.347 297.821,170.981 307.200 C 172.770 309.730,175.122 313.060,176.208 314.600 C 177.293 316.140,179.992 319.740,182.206 322.600 C 184.420 325.460,186.995 328.990,187.927 330.445 L 189.622 333.089 194.111 331.279 C 199.184 329.233,201.664 327.768,204.700 325.024 L 206.800 323.126 206.800 319.947 C 206.800 317.456,206.634 316.533,206.033 315.684 C 201.369 309.097,187.600 287.339,187.600 286.555 C 187.600 286.310,188.158 285.410,188.840 284.555 C 191.796 280.848,194.700 275.198,198.685 265.400 C 199.669 262.980,200.614 260.820,200.785 260.600 C 201.492 259.691,201.559 257.131,200.996 252.615 C 200.307 247.081,200.237 244.148,200.788 243.807 C 201.282 243.502,201.492 244.560,201.783 248.800 C 202.289 256.167,202.895 259.621,202.976 255.595 C 202.989 254.943,203.180 254.419,203.400 254.431 C 203.620 254.443,203.746 254.713,203.681 255.032 C 203.616 255.351,203.951 255.756,204.427 255.932 C 205.434 256.304,204.570 257.574,203.271 257.628 C 202.730 257.651,202.755 257.723,203.400 258.000 C 206.410 259.293,218.455 257.807,221.340 255.787 C 222.616 254.893,222.674 242.677,221.400 243.037 C 220.960 243.162,220.276 243.354,219.880 243.465 C 217.713 244.072,216.522 241.565,218.500 240.559 C 219.215 240.196,219.854 239.852,219.920 239.796 C 219.986 239.740,219.567 238.998,218.990 238.147 C 218.412 237.296,217.841 236.105,217.720 235.500 C 217.569 234.746,217.252 234.400,216.710 234.400 C 215.398 234.400,213.261 231.921,212.962 230.053 C 212.662 228.174,213.021 228.248,207.200 228.869 M231.600 231.600 C 231.600 232.260,231.672 232.800,231.761 232.800 C 231.849 232.800,232.110 232.260,232.340 231.600 C 232.679 230.627,232.649 230.400,232.179 230.400 C 231.802 230.400,231.600 230.819,231.600 231.600 M232.220 234.033 C 232.322 234.197,232.203 234.399,231.957 234.481 C 231.710 234.563,231.574 234.952,231.654 235.344 C 231.773 235.926,231.926 235.843,232.483 234.896 C 233.040 233.949,233.061 233.733,232.601 233.733 C 232.290 233.733,232.118 233.868,232.220 234.033 M221.100 234.276 C 220.038 234.553,220.257 235.522,221.700 236.931 L 223.000 238.200 223.127 236.658 C 223.332 234.158,223.008 233.777,221.100 234.276 M218.400 234.613 C 218.400 235.347,219.661 237.551,220.548 238.370 C 221.910 239.625,221.919 239.155,220.559 237.796 C 219.893 237.130,219.592 236.475,219.722 235.977 C 219.834 235.549,219.762 235.300,219.563 235.423 C 219.363 235.546,219.200 235.367,219.200 235.024 C 219.200 234.681,219.020 234.400,218.800 234.400 C 218.580 234.400,218.400 234.496,218.400 234.613 M232.600 238.714 C 232.348 238.894,232.274 241.290,232.400 245.200 C 232.626 252.219,233.064 252.260,233.413 245.296 C 233.649 240.588,233.351 238.177,232.600 238.714 M222.430 239.581 C 222.047 239.818,222.063 239.939,222.503 240.107 C 222.816 240.228,223.296 240.188,223.570 240.019 C 223.953 239.782,223.937 239.661,223.497 239.493 C 223.184 239.372,222.704 239.412,222.430 239.581 M231.852 260.500 C 231.719 260.995,231.598 262.030,231.582 262.800 C 231.548 264.460,229.509 270.097,228.865 270.312 C 227.585 270.738,222.800 264.986,222.800 263.020 C 222.800 261.849,222.821 261.858,221.326 262.435 C 219.014 263.328,212.256 264.400,208.937 264.400 C 205.929 264.400,205.564 264.475,206.000 265.000 C 206.353 265.425,206.365 265.600,206.041 265.600 C 205.752 265.600,205.672 266.003,205.824 266.700 L 206.063 267.800 205.240 266.800 C 204.788 266.250,204.414 265.485,204.409 265.100 C 204.404 264.715,204.201 264.400,203.957 264.400 C 203.714 264.400,203.623 264.684,203.756 265.030 C 204.566 267.141,205.641 276.166,205.992 283.800 C 206.457 293.914,207.169 304.762,207.417 305.516 C 207.511 305.800,207.599 310.532,207.615 316.033 C 207.642 325.898,208.333 335.378,209.205 337.856 C 210.725 342.172,229.583 343.887,233.908 340.103 C 234.684 339.424,234.699 339.132,234.370 331.400 C 234.010 322.930,233.149 286.660,232.906 269.700 C 232.774 260.457,232.501 258.078,231.852 260.500 M190.157 280.900 C 187.932 284.491,186.208 285.750,186.869 283.300 C 187.326 281.610,188.066 280.557,187.754 282.042 C 187.591 282.817,187.876 282.636,189.242 281.100 C 191.324 278.758,191.509 278.717,190.157 280.900 M187.083 288.100 C 187.536 288.595,188.207 289.630,188.574 290.400 L 189.243 291.800 188.321 290.764 C 187.815 290.195,186.999 289.205,186.509 288.564 C 185.868 287.726,185.682 287.624,185.847 288.200 C 186.034 288.854,185.996 288.890,185.644 288.400 C 184.610 286.963,185.814 286.712,187.083 288.100 M211.155 359.536 C 209.920 359.945,207.310 360.574,205.355 360.934 C 203.400 361.294,201.350 361.672,200.800 361.773 C 200.250 361.875,201.080 361.878,202.644 361.781 C 204.209 361.684,207.244 361.244,209.388 360.802 C 214.415 359.768,214.729 359.779,215.037 361.003 C 215.389 362.409,216.335 362.545,223.535 362.226 C 231.428 361.876,232.800 361.559,232.799 360.085 L 232.798 359.000 223.099 358.896 C 214.540 358.805,213.136 358.880,211.155 359.536 M189.696 362.068 C 189.973 362.244,191.280 362.376,192.600 362.362 C 195.520 362.331,195.090 362.113,191.696 361.903 C 190.320 361.818,189.420 361.892,189.696 362.068 M196.100 362.287 C 196.705 362.378,197.695 362.378,198.300 362.287 C 198.905 362.195,198.410 362.120,197.200 362.120 C 195.990 362.120,195.495 362.195,196.100 362.287 " stroke="none" fill="#5d5c5b" fill-rule="evenodd"></path><path id="path2" d="M189.600 61.000 C 189.377 61.268,188.839 63.448,188.405 65.844 C 187.970 68.240,187.076 71.820,186.417 73.800 C 185.759 75.780,185.216 77.794,185.210 78.276 C 185.194 79.644,184.691 79.718,179.017 79.187 C 172.633 78.589,170.706 79.103,170.477 81.462 C 170.247 83.838,173.670 85.420,182.100 86.836 L 185.200 87.356 185.200 89.614 C 185.200 91.533,184.900 92.461,183.200 95.800 C 180.512 101.079,180.598 102.566,183.618 103.049 C 184.819 103.241,185.249 103.513,185.365 104.152 C 187.398 115.347,189.580 119.200,193.885 119.200 C 195.874 119.200,196.000 119.259,196.000 120.200 C 196.000 120.750,195.826 121.200,195.614 121.200 C 195.402 121.200,194.570 121.777,193.767 122.483 C 192.617 123.492,191.867 123.798,190.253 123.917 C 189.124 124.000,187.930 124.302,187.600 124.588 C 187.270 124.873,186.194 125.513,185.208 126.008 C 182.756 127.242,178.887 131.049,175.461 135.600 C 173.888 137.690,170.815 141.634,168.633 144.364 L 164.665 149.328 162.526 144.964 C 161.350 142.564,159.312 138.275,157.997 135.432 C 156.682 132.590,155.227 129.912,154.763 129.480 C 154.112 128.873,153.978 128.413,154.174 127.448 C 154.740 124.654,154.882 121.611,154.498 120.509 C 154.238 119.763,154.227 119.094,154.469 118.663 C 156.912 114.297,153.630 107.761,149.707 109.179 C 147.612 109.937,147.376 109.455,145.607 100.783 C 143.388 89.908,141.424 82.586,140.744 82.656 C 138.632 82.871,122.233 86.441,121.834 86.772 C 121.439 87.100,121.653 88.848,122.855 95.093 C 123.691 99.442,124.841 105.430,125.410 108.400 C 126.645 114.845,126.463 114.608,129.540 113.753 C 132.436 112.948,132.232 112.817,132.511 115.650 L 132.732 117.900 131.066 117.522 C 125.290 116.214,121.193 121.416,126.595 123.198 C 127.361 123.451,128.329 123.549,128.747 123.417 C 129.783 123.088,132.748 125.393,133.896 127.419 C 134.531 128.539,135.659 129.525,137.769 130.800 C 139.589 131.900,140.835 132.936,140.972 133.463 C 141.096 133.937,141.300 134.596,141.427 134.927 C 141.574 135.309,141.356 135.624,140.829 135.791 C 140.336 135.947,140.000 136.395,140.000 136.895 C 140.000 137.358,139.709 138.059,139.353 138.452 C 138.751 139.117,138.853 139.497,140.806 143.883 C 143.754 150.503,145.644 155.373,147.605 161.400 C 151.205 172.464,154.602 176.000,161.631 176.000 C 164.896 176.000,166.471 175.115,171.244 170.597 C 176.265 165.845,178.746 163.813,179.098 164.165 C 179.251 164.318,179.499 172.128,179.649 181.522 C 180.038 205.923,179.603 209.768,174.656 225.628 C 171.715 235.056,171.671 235.334,172.818 237.433 C 173.714 239.074,173.725 239.196,173.102 240.669 C 167.772 253.270,160.400 280.944,160.400 288.352 C 160.400 291.769,163.708 299.097,168.186 305.600 C 173.848 313.822,177.279 318.578,180.305 322.400 C 182.133 324.710,184.774 328.334,186.172 330.452 C 189.061 334.829,189.213 334.931,191.399 333.954 C 193.936 332.820,194.076 333.863,192.341 341.000 C 190.970 346.639,190.936 346.707,189.272 346.988 C 185.570 347.613,182.410 350.673,182.097 353.934 C 181.812 356.899,184.248 360.714,186.173 360.316 C 186.483 360.252,187.163 360.830,187.683 361.600 C 189.489 364.272,197.439 364.566,208.463 362.370 C 213.100 361.446,213.600 361.428,213.600 362.186 C 213.600 363.633,224.773 364.186,231.200 363.057 L 233.800 362.600 234.081 359.600 C 234.266 357.628,234.171 355.435,233.803 353.200 C 233.495 351.330,233.122 348.160,232.974 346.156 L 232.706 342.512 234.453 341.539 C 235.824 340.776,236.188 340.355,236.143 339.583 C 235.749 332.750,235.199 312.622,235.195 304.897 C 235.193 299.454,234.943 290.050,234.640 284.000 C 234.338 277.950,234.128 269.670,234.175 265.600 L 234.259 258.200 235.676 256.000 C 241.751 246.563,243.496 236.839,242.020 220.660 C 241.664 216.765,241.678 215.778,242.088 215.659 C 244.523 214.950,253.648 203.722,257.740 196.400 C 267.942 178.146,267.892 168.867,257.508 153.216 C 252.176 145.179,235.829 129.985,229.051 126.765 C 227.565 126.059,226.423 125.192,225.944 124.404 C 225.527 123.719,224.290 122.601,223.193 121.920 L 221.200 120.680 221.200 117.098 C 221.200 113.774,221.271 113.460,222.178 112.746 C 223.584 111.640,225.835 106.897,226.613 103.401 C 227.157 100.954,227.421 100.400,228.040 100.400 C 228.579 100.400,228.800 100.116,228.800 99.424 C 228.800 98.887,228.980 98.336,229.200 98.200 C 229.420 98.064,229.600 97.423,229.600 96.776 C 229.600 95.997,229.803 95.600,230.200 95.600 C 230.872 95.600,230.985 94.693,230.439 93.674 C 230.107 93.053,230.694 93.000,237.939 93.000 C 246.757 93.000,248.788 92.497,249.372 90.169 C 249.963 87.814,246.698 86.271,239.477 85.492 C 236.692 85.192,234.300 84.834,234.163 84.696 C 233.801 84.335,234.701 75.511,235.448 72.096 C 236.328 68.068,236.489 68.215,230.334 67.449 C 227.400 67.084,224.415 66.710,223.699 66.618 C 222.523 66.466,222.438 66.523,222.807 67.213 C 223.122 67.802,222.901 68.783,221.846 71.488 C 221.093 73.420,220.167 76.080,219.790 77.400 C 219.412 78.720,218.923 80.025,218.703 80.300 C 217.612 81.662,202.376 79.805,202.739 78.355 C 203.255 76.291,206.060 66.696,206.547 65.333 L 207.141 63.667 205.070 63.396 C 203.932 63.246,200.570 62.621,197.600 62.007 C 190.124 60.461,190.055 60.452,189.600 61.000 M188.382 77.378 C 189.204 78.369,188.742 79.800,187.600 79.800 C 186.860 79.800,186.566 79.560,186.469 78.878 C 186.343 77.984,186.987 76.800,187.600 76.800 C 187.766 76.800,188.118 77.060,188.382 77.378 M192.171 78.447 C 191.957 78.792,189.600 78.963,189.600 78.633 C 189.600 78.541,189.497 78.196,189.371 77.868 C 189.175 77.358,189.381 77.331,190.765 77.682 C 191.658 77.909,192.291 78.253,192.171 78.447 M194.826 79.214 C 195.747 79.707,195.852 81.128,194.993 81.458 C 194.058 81.817,192.000 80.804,192.000 79.985 C 192.000 78.876,193.454 78.479,194.826 79.214 M202.543 80.002 C 209.336 81.384,216.531 81.991,226.153 81.996 L 232.905 82.000 232.686 83.633 C 232.566 84.531,232.361 85.373,232.231 85.503 C 231.503 86.230,206.604 84.440,200.000 83.186 C 196.248 82.474,196.000 82.397,196.000 81.949 C 196.000 81.690,196.386 81.610,196.954 81.753 C 198.193 82.064,199.080 81.130,198.222 80.419 C 197.899 80.151,197.427 80.060,197.173 80.217 C 196.744 80.482,196.020 79.789,196.006 79.100 C 195.997 78.672,196.028 78.676,202.543 80.002 M191.380 80.845 C 191.823 81.258,191.040 81.307,189.704 80.949 C 189.212 80.817,188.912 80.542,189.038 80.338 C 189.284 79.941,190.753 80.259,191.380 80.845 M141.753 88.703 C 144.381 99.411,144.731 101.600,143.813 101.600 C 143.455 101.600,143.315 101.365,143.455 101.000 C 143.724 100.301,142.890 100.207,142.000 100.837 C 141.548 101.156,141.524 101.311,141.900 101.464 C 142.596 101.746,142.527 102.400,141.800 102.400 C 141.010 102.400,141.038 103.158,141.862 104.069 C 142.742 105.040,143.867 104.995,144.418 103.966 C 145.093 102.705,145.365 103.378,144.746 104.777 C 144.169 106.081,143.650 106.290,142.887 105.527 C 142.626 105.266,142.296 105.171,142.152 105.314 C 141.874 105.593,142.734 107.077,143.781 108.124 C 144.363 108.706,144.288 108.784,142.909 109.032 C 140.839 109.403,139.716 110.124,141.705 109.804 C 142.824 109.624,143.268 109.712,143.436 110.149 C 143.628 110.651,143.844 110.659,144.925 110.204 C 147.127 109.278,149.604 111.170,149.594 113.770 C 149.585 116.105,149.242 116.497,147.711 115.920 C 146.205 115.351,145.200 115.963,145.200 117.449 C 145.200 117.972,144.997 118.400,144.748 118.400 C 144.435 118.400,144.382 117.756,144.573 116.300 C 144.780 114.724,144.735 114.313,144.391 114.653 C 142.162 116.860,145.101 121.535,147.538 119.660 C 148.461 118.951,148.498 118.959,149.651 120.113 C 150.778 121.240,151.196 121.306,152.851 120.622 C 153.330 120.423,153.572 120.635,153.771 121.428 C 154.103 122.752,153.237 128.400,152.702 128.400 C 152.489 128.400,152.416 128.665,152.540 128.989 C 153.068 130.365,147.500 134.240,143.344 135.389 C 142.367 135.659,141.167 133.315,142.013 132.792 C 142.246 132.648,140.887 131.581,138.994 130.420 C 136.670 128.994,135.234 127.804,134.572 126.755 C 133.107 124.434,130.153 122.426,128.580 122.681 C 126.792 122.971,124.800 121.866,124.800 120.584 C 124.800 117.067,132.416 117.541,136.300 121.299 C 137.015 121.991,137.600 122.356,137.600 122.110 C 137.600 121.864,136.779 120.960,135.776 120.103 L 133.951 118.543 133.586 114.772 C 132.770 106.329,133.229 98.382,134.562 97.870 C 136.403 97.164,138.303 100.938,138.622 105.934 C 139.040 112.484,139.114 113.247,139.357 113.490 C 139.491 113.624,139.600 113.423,139.600 113.043 C 139.600 112.663,139.780 112.464,140.000 112.600 C 140.599 112.970,140.482 112.166,139.862 111.651 C 138.983 110.922,138.612 101.670,139.426 100.771 C 141.030 98.999,140.106 97.210,136.200 94.527 C 134.220 93.166,132.487 92.041,132.350 92.027 C 132.212 92.012,131.342 93.575,130.417 95.500 C 128.105 100.308,128.533 102.800,131.672 102.800 C 132.698 102.800,132.778 102.907,132.640 104.100 C 132.557 104.815,132.469 106.844,132.445 108.609 L 132.400 111.817 129.985 112.446 C 128.657 112.792,127.509 112.968,127.434 112.838 C 127.359 112.707,126.982 110.890,126.597 108.800 C 126.211 106.710,125.129 101.040,124.191 96.200 C 123.254 91.360,122.538 87.344,122.601 87.276 C 122.663 87.208,126.011 86.535,130.040 85.782 C 134.069 85.028,137.554 84.333,137.783 84.237 C 138.012 84.141,138.740 84.050,139.400 84.035 L 140.600 84.007 141.753 88.703 M187.400 87.600 C 187.536 87.820,187.266 88.000,186.800 88.000 C 186.334 88.000,186.064 87.820,186.200 87.600 C 186.336 87.380,186.606 87.200,186.800 87.200 C 186.994 87.200,187.264 87.380,187.400 87.600 M124.161 88.158 C 124.043 88.465,124.020 89.410,124.109 90.258 C 124.249 91.581,124.316 91.672,124.583 90.900 C 124.925 89.908,125.585 89.745,126.313 90.473 C 127.259 91.419,127.291 90.382,126.358 89.012 C 125.354 87.539,124.523 87.215,124.161 88.158 M191.200 88.210 C 191.200 88.444,189.679 89.064,188.182 89.440 C 186.829 89.780,186.927 88.966,188.300 88.465 C 189.503 88.026,191.200 87.876,191.200 88.210 M197.200 89.600 C 197.727 90.585,197.400 90.585,195.600 89.600 L 194.200 88.834 195.486 88.817 C 196.374 88.805,196.904 89.048,197.200 89.600 M202.947 91.349 C 204.349 93.385,204.440 93.712,204.675 97.568 C 204.880 100.924,205.027 101.599,205.512 101.412 C 205.836 101.288,206.346 101.389,206.644 101.637 C 207.158 102.063,208.136 100.568,207.921 99.686 C 207.033 96.055,212.104 90.122,214.355 92.159 C 217.285 94.811,216.878 96.631,212.300 101.345 C 209.164 104.574,208.603 105.443,209.930 105.022 C 210.482 104.847,211.014 105.303,212.110 106.895 C 214.461 110.308,216.400 111.973,218.425 112.320 L 220.200 112.623 220.200 118.123 L 220.200 123.623 218.574 124.411 C 215.957 125.680,212.640 126.125,205.514 126.164 C 197.390 126.208,197.411 126.219,196.995 121.600 L 196.725 118.600 199.835 118.000 C 201.710 117.638,203.016 117.179,203.125 116.843 C 203.262 116.420,203.030 116.346,202.152 116.537 C 201.518 116.674,199.144 117.087,196.876 117.454 L 192.751 118.122 190.804 116.204 C 189.119 114.545,188.749 113.876,188.057 111.243 C 186.555 105.529,186.260 103.535,186.861 103.148 C 187.608 102.666,186.589 102.014,185.074 102.006 C 182.079 101.990,181.866 101.092,183.888 97.007 C 185.500 93.748,186.000 93.325,186.000 95.220 C 186.000 97.091,187.044 98.800,188.188 98.800 C 189.215 98.800,190.400 97.486,190.400 96.346 C 190.400 95.872,190.867 95.591,191.964 95.406 C 195.291 94.844,195.982 91.831,192.800 91.760 C 191.810 91.737,189.981 91.579,188.735 91.409 C 186.557 91.110,186.462 91.135,186.289 92.049 C 186.170 92.679,186.091 92.476,186.054 91.451 C 186.010 90.193,186.101 89.986,186.540 90.350 C 186.942 90.684,187.580 90.646,189.040 90.203 C 191.757 89.379,192.315 89.434,195.135 90.800 C 198.869 92.609,200.813 92.342,199.166 90.247 L 198.342 89.200 199.904 89.200 C 201.344 89.200,201.584 89.370,202.947 91.349 M208.529 90.395 C 210.250 90.618,211.845 90.800,212.075 90.800 C 212.304 90.800,211.401 91.528,210.069 92.418 L 207.646 94.035 207.145 97.018 C 206.486 100.943,206.121 100.781,205.779 96.413 C 205.518 93.074,205.401 92.712,204.094 91.184 L 202.689 89.543 204.044 89.766 C 204.790 89.889,206.808 90.172,208.529 90.395 M124.814 91.974 C 124.180 93.159,124.319 94.054,125.172 94.277 C 125.632 94.397,125.857 94.706,125.730 95.039 C 125.476 95.699,126.339 95.772,127.200 95.163 C 127.652 94.844,127.676 94.689,127.300 94.536 C 126.604 94.254,126.673 93.600,127.400 93.600 C 128.224 93.600,128.154 92.663,127.269 91.862 C 126.295 90.981,125.322 91.025,124.814 91.974 M222.984 92.214 C 228.051 92.768,229.171 93.100,229.194 94.053 C 229.197 94.193,228.833 94.403,228.384 94.520 C 227.732 94.691,227.620 94.942,227.829 95.772 C 227.979 96.373,227.887 97.054,227.610 97.388 C 227.347 97.705,227.263 98.179,227.425 98.440 C 227.635 98.780,227.406 98.856,226.629 98.708 C 225.649 98.520,225.562 98.594,225.772 99.433 C 226.219 101.213,223.804 108.417,221.919 110.925 C 220.300 113.079,215.610 110.621,212.569 106.025 L 211.531 104.457 213.671 101.928 C 218.148 96.639,218.283 96.199,216.382 93.108 L 215.163 91.128 216.282 91.366 C 216.897 91.496,219.913 91.878,222.984 92.214 M189.129 93.957 C 189.237 95.077,189.145 95.265,188.597 95.054 C 188.233 94.914,187.859 94.800,187.767 94.800 C 187.675 94.800,187.600 94.247,187.600 93.571 C 187.600 91.767,188.952 92.109,189.129 93.957 M191.110 93.838 C 190.686 94.769,190.607 94.800,190.347 94.138 C 189.889 92.975,189.947 92.800,190.791 92.800 C 191.498 92.800,191.532 92.911,191.110 93.838 M211.289 94.908 C 210.181 96.051,210.051 96.407,210.264 97.717 C 210.450 98.863,210.329 99.419,209.754 100.067 C 209.007 100.908,209.009 100.912,209.878 100.456 C 211.099 99.815,211.196 99.555,210.824 97.906 C 210.534 96.619,210.625 96.334,211.635 95.367 L 212.772 94.277 213.573 95.238 C 214.517 96.372,214.680 95.777,213.777 94.489 C 212.965 93.329,212.792 93.358,211.289 94.908 M189.015 96.304 C 188.897 96.613,188.800 97.031,188.800 97.233 C 188.800 97.967,187.718 97.577,187.325 96.700 C 186.699 95.304,187.058 94.752,188.242 95.292 C 188.839 95.564,189.145 95.965,189.015 96.304 M145.972 107.900 C 145.987 108.175,145.820 108.400,145.600 108.400 C 145.380 108.400,145.213 107.815,145.228 107.100 C 145.256 105.820,145.893 106.506,145.972 107.900 M189.200 108.000 C 190.667 108.470,192.490 108.470,192.200 108.000 C 192.064 107.780,191.108 107.618,190.076 107.640 C 188.540 107.673,188.381 107.738,189.200 108.000 M152.788 111.051 C 153.950 112.029,154.029 112.258,153.918 114.351 L 153.800 116.600 152.204 116.600 C 150.745 116.600,150.571 116.716,150.167 117.952 C 149.845 118.939,149.659 119.131,149.479 118.662 C 149.344 118.309,149.495 117.391,149.816 116.623 C 150.595 114.758,150.576 111.844,149.781 111.184 C 149.287 110.774,149.267 110.604,149.681 110.341 C 150.592 109.763,151.505 109.972,152.788 111.051 M214.209 117.000 C 214.050 117.660,213.747 118.920,213.536 119.800 C 213.324 120.680,212.866 122.169,212.518 123.109 C 211.716 125.273,212.131 125.809,213.009 123.743 C 213.792 121.901,214.901 116.882,214.665 116.248 C 214.574 116.002,214.368 116.340,214.209 117.000 M148.341 116.755 C 149.284 117.352,148.182 118.800,146.786 118.800 C 145.587 118.800,145.341 118.339,145.843 117.033 C 146.105 116.350,147.464 116.199,148.341 116.755 M153.329 117.500 C 153.761 118.232,152.788 119.600,151.836 119.600 C 150.596 119.600,150.237 119.051,150.796 118.008 C 151.216 117.223,152.960 116.873,153.329 117.500 M224.783 124.669 C 226.352 126.663,224.604 128.451,219.138 130.446 C 214.451 132.157,201.891 133.158,200.907 131.900 C 200.552 131.446,199.599 128.105,199.601 127.323 C 199.602 127.145,202.167 126.976,205.303 126.946 C 214.647 126.858,219.722 125.646,221.147 123.163 L 221.775 122.070 222.870 122.850 C 223.472 123.279,224.333 124.097,224.783 124.669 M196.284 123.500 C 196.537 124.105,197.056 125.074,197.437 125.654 C 198.109 126.678,198.098 126.762,197.048 128.554 C 195.718 130.824,195.524 130.829,193.347 128.653 C 191.223 126.529,191.226 126.642,193.234 124.300 C 195.109 122.112,195.645 121.971,196.284 123.500 M143.000 123.452 C 143.220 123.645,144.120 124.432,144.999 125.201 L 146.598 126.600 145.399 125.266 C 144.740 124.532,143.840 123.745,143.400 123.517 C 142.960 123.289,142.780 123.260,143.000 123.452 M195.620 131.200 C 195.771 131.200,195.604 132.190,195.248 133.399 C 194.891 134.609,194.510 135.590,194.400 135.579 C 193.913 135.532,192.000 130.786,192.000 129.625 L 192.000 128.338 193.672 129.769 C 194.592 130.556,195.468 131.200,195.620 131.200 M154.000 130.767 C 154.000 133.359,143.107 139.878,141.754 138.096 C 140.866 136.927,141.123 136.514,143.042 136.031 C 145.749 135.349,149.854 133.239,151.745 131.556 C 153.264 130.204,154.000 129.947,154.000 130.767 M193.677 141.100 C 193.551 146.912,193.695 147.442,195.009 145.991 C 196.234 144.637,196.452 145.939,195.293 147.689 C 194.050 149.568,193.929 149.426,192.808 144.743 C 191.884 140.888,191.347 134.626,191.796 132.949 L 192.104 131.800 192.952 133.600 C 193.715 135.219,193.788 135.973,193.677 141.100 M207.500 132.940 C 210.195 132.796,212.400 132.785,212.400 132.916 C 212.400 134.044,210.553 135.983,208.890 136.603 C 206.787 137.386,204.942 138.619,202.707 140.735 C 201.886 141.512,201.110 142.044,200.983 141.916 C 200.635 141.568,200.017 136.886,200.008 134.528 L 200.000 132.456 201.300 132.829 C 202.024 133.037,204.771 133.086,207.500 132.940 M209.375 138.300 C 207.084 142.253,204.395 146.265,203.426 147.176 C 202.312 148.223,202.378 148.302,201.600 145.000 L 201.128 143.000 203.510 140.800 C 205.410 139.045,209.503 136.400,210.319 136.400 C 210.405 136.400,209.981 137.255,209.375 138.300 M198.650 145.400 C 199.014 146.060,199.835 147.158,200.475 147.839 L 201.639 149.078 198.838 150.974 C 195.820 153.017,195.560 153.034,194.812 151.230 C 194.349 150.111,194.427 149.905,196.160 147.652 C 197.992 145.271,198.500 144.287,197.447 145.161 C 196.755 145.736,196.286 144.824,196.831 143.964 C 197.027 143.654,197.212 142.590,197.241 141.600 L 197.294 139.800 197.641 142.000 C 197.833 143.210,198.287 144.740,198.650 145.400 M195.074 158.470 C 196.659 159.959,196.010 164.400,194.206 164.400 C 192.422 164.400,191.208 159.650,192.629 158.229 C 193.471 157.386,193.974 157.436,195.074 158.470 M240.366 171.159 C 242.217 172.281,243.882 173.200,244.066 173.200 C 245.123 173.200,242.304 179.649,239.111 184.537 L 237.323 187.274 237.071 183.137 C 236.406 172.220,236.299 168.690,236.638 168.897 C 236.837 169.018,238.515 170.036,240.366 171.159 M195.597 182.191 C 196.285 184.275,195.103 187.045,193.748 186.525 C 192.750 186.142,191.924 184.060,192.219 182.671 C 192.842 179.738,194.700 179.474,195.597 182.191 M200.051 204.422 C 203.011 207.824,211.689 213.200,214.222 213.200 C 214.578 213.200,214.800 213.600,214.800 214.238 C 214.800 215.076,215.468 216.408,216.666 217.962 C 216.735 218.051,217.449 218.231,218.254 218.362 C 221.565 218.901,218.116 220.222,210.303 221.408 C 202.957 222.524,202.651 222.459,199.425 219.102 C 197.893 217.508,196.786 216.563,196.965 217.002 C 197.643 218.662,197.651 219.141,197.024 220.353 C 196.099 222.142,195.857 221.898,196.178 219.500 C 196.467 217.334,196.538 216.295,197.011 207.300 C 197.332 201.184,197.279 201.234,200.051 204.422 M227.600 203.053 C 227.600 204.470,233.124 211.706,235.608 213.542 C 237.100 214.646,236.903 215.122,233.463 218.708 C 231.748 220.496,230.965 221.070,230.735 220.708 C 230.525 220.378,230.410 220.576,230.406 221.276 C 230.403 221.868,230.580 222.464,230.800 222.600 C 231.602 223.096,231.239 224.400,230.300 224.399 C 228.878 224.396,223.707 220.738,222.906 219.169 C 222.535 218.442,222.410 218.375,222.406 218.900 C 222.398 219.849,221.854 219.780,220.557 218.664 C 219.440 217.704,219.444 216.244,220.573 213.000 C 220.726 212.560,220.558 212.705,220.201 213.323 C 219.843 213.940,219.422 215.199,219.265 216.119 C 218.826 218.692,217.605 218.619,215.837 215.915 C 214.819 214.357,215.580 212.367,218.156 209.853 C 219.319 208.717,219.683 208.215,219.000 208.686 C 218.340 209.141,217.457 209.893,217.038 210.357 C 216.064 211.434,215.402 211.423,214.626 210.316 C 213.908 209.291,214.081 209.062,216.044 208.436 C 216.839 208.182,218.729 207.142,220.244 206.124 C 224.749 203.100,227.600 201.909,227.600 203.053 M232.984 208.338 C 234.533 209.954,236.826 212.048,238.079 212.992 C 240.260 214.635,240.566 215.200,239.275 215.200 C 237.761 215.200,229.217 206.088,228.662 203.882 C 228.480 203.162,228.598 203.220,229.304 204.200 C 229.779 204.860,231.435 206.722,232.984 208.338 M227.791 225.642 C 225.816 226.494,224.451 226.722,224.390 226.210 C 224.330 225.710,228.012 224.493,228.791 224.756 C 229.168 224.883,228.805 225.204,227.791 225.642 M230.400 226.300 C 230.399 227.440,225.747 229.007,225.474 227.960 C 225.236 227.053,225.474 226.883,227.920 226.214 C 230.475 225.515,230.400 225.512,230.400 226.300 M224.800 227.876 C 224.800 228.663,223.835 228.315,223.671 227.468 C 223.581 227.004,223.732 226.876,224.171 227.044 C 224.517 227.177,224.800 227.551,224.800 227.876 M230.493 232.951 L 230.286 236.901 227.843 238.011 L 225.400 239.121 225.287 235.231 C 225.140 230.204,225.336 229.734,228.022 228.652 C 230.736 227.559,230.772 227.621,230.493 232.951 M213.002 230.014 C 213.338 232.003,214.837 233.857,216.385 234.197 C 217.251 234.387,217.613 234.748,217.803 235.613 C 217.943 236.251,218.504 237.431,219.049 238.234 C 219.594 239.037,219.986 239.740,219.920 239.796 C 219.854 239.852,219.215 240.196,218.500 240.559 C 216.463 241.596,217.738 244.071,219.980 243.433 C 222.467 242.726,222.252 242.183,222.225 249.097 L 222.200 255.400 220.400 256.280 C 217.041 257.923,212.247 258.677,206.376 258.486 C 202.420 258.356,202.477 258.454,201.896 250.833 C 201.522 245.914,201.256 244.219,200.839 244.080 C 200.226 243.875,200.433 249.088,201.254 254.506 C 201.826 258.287,201.694 258.789,197.664 268.065 C 193.764 277.045,192.918 278.672,189.793 283.200 C 188.655 284.850,187.763 286.470,187.812 286.800 C 187.929 287.599,192.632 295.309,197.262 302.295 C 199.318 305.397,202.305 309.946,203.900 312.405 L 206.800 316.874 206.800 319.994 L 206.800 323.114 204.423 325.314 C 201.495 328.025,198.990 329.478,193.725 331.516 L 189.651 333.093 187.034 329.247 C 185.595 327.131,182.658 323.124,180.508 320.343 C 170.797 307.778,163.608 296.440,162.182 291.442 C 160.787 286.549,163.821 271.947,170.087 253.400 C 171.648 248.780,173.274 243.962,173.700 242.692 L 174.476 240.384 175.573 241.892 C 178.222 245.533,181.661 248.156,186.834 250.482 C 195.827 254.526,196.453 254.511,195.671 250.263 C 195.174 247.564,195.037 235.993,195.450 231.600 L 195.695 229.000 199.548 229.116 C 201.666 229.180,204.930 229.069,206.800 228.869 C 212.932 228.215,212.691 228.170,213.002 230.014 M224.400 234.417 L 224.400 239.633 221.763 240.817 C 218.781 242.155,218.800 242.150,218.800 241.586 C 218.800 241.074,222.323 239.477,223.350 239.524 C 224.061 239.556,224.085 239.285,223.814 234.379 C 223.612 230.731,223.656 229.200,223.964 229.200 C 224.256 229.200,224.400 230.917,224.400 234.417 M232.340 231.600 C 232.110 232.260,231.849 232.800,231.761 232.800 C 231.672 232.800,231.600 232.260,231.600 231.600 C 231.600 230.819,231.802 230.400,232.179 230.400 C 232.649 230.400,232.679 230.627,232.340 231.600 M232.779 234.400 C 231.946 235.961,231.141 236.668,231.415 235.600 C 231.981 233.393,232.574 232.358,232.846 233.104 C 232.985 233.487,232.955 234.070,232.779 234.400 M223.200 236.014 C 223.200 237.887,223.145 237.999,222.421 237.611 C 220.698 236.689,219.870 234.597,221.100 234.276 C 223.031 233.771,223.200 233.911,223.200 236.014 M220.003 235.608 C 220.279 236.273,221.012 237.244,221.633 237.766 C 222.647 238.619,222.686 238.737,222.012 238.913 C 220.953 239.190,218.400 236.302,218.400 234.826 C 218.400 233.913,219.529 234.463,220.003 235.608 M233.476 245.080 C 233.140 252.516,232.638 252.572,232.400 245.200 C 232.276 241.347,232.349 238.893,232.594 238.718 C 233.452 238.105,233.707 239.952,233.476 245.080 M203.052 254.326 C 202.669 254.934,203.080 257.600,203.556 257.600 C 203.732 257.600,204.218 257.222,204.636 256.760 C 205.384 255.933,205.384 255.922,204.611 256.060 C 204.009 256.167,203.774 255.921,203.604 255.000 C 203.450 254.164,203.283 253.959,203.052 254.326 M232.858 260.300 C 232.890 260.685,232.872 263.790,232.818 267.200 C 232.765 270.610,232.920 277.540,233.163 282.600 C 233.407 287.660,233.791 301.790,234.018 314.000 C 234.244 326.210,234.533 337.024,234.659 338.032 L 234.889 339.863 232.869 340.732 C 227.381 343.093,214.049 342.342,210.316 339.463 C 208.500 338.062,208.024 334.135,207.596 317.000 C 207.404 309.300,207.065 301.020,206.844 298.600 C 206.623 296.180,206.244 289.894,206.003 284.631 C 205.620 276.299,204.753 268.829,203.760 265.300 C 203.606 264.753,203.682 264.400,203.953 264.400 C 204.199 264.400,204.404 264.715,204.409 265.100 C 204.414 265.485,204.770 266.250,205.200 266.800 C 206.070 267.912,206.190 267.752,205.617 266.245 C 205.289 265.381,205.331 265.275,205.917 265.494 C 206.513 265.717,206.530 265.664,206.051 265.075 C 205.544 264.452,205.759 264.400,208.851 264.396 C 211.787 264.392,220.081 263.025,222.045 262.221 C 222.560 262.010,222.746 262.304,222.965 263.678 C 223.253 265.485,227.849 270.650,228.867 270.311 C 229.567 270.078,231.551 264.383,231.577 262.533 C 231.611 260.081,232.685 258.210,232.858 260.300 M202.781 267.069 C 203.988 273.179,204.356 276.695,204.807 286.400 C 205.037 291.350,205.489 298.606,205.812 302.524 C 206.136 306.442,206.400 310.582,206.400 311.724 L 206.400 313.800 200.719 305.200 C 197.594 300.470,193.646 294.389,191.945 291.688 L 188.853 286.775 190.994 283.790 C 193.464 280.348,196.205 274.859,199.234 267.291 C 201.639 261.281,201.638 261.281,202.781 267.069 M189.227 281.268 C 188.038 282.698,187.818 282.821,187.593 282.179 C 187.343 281.468,186.768 283.226,186.817 284.550 C 186.837 285.108,189.143 282.520,190.123 280.839 C 191.088 279.184,190.872 279.287,189.227 281.268 M185.206 287.500 C 185.209 287.665,185.406 288.070,185.644 288.400 C 185.995 288.889,186.031 288.852,185.836 288.200 C 185.581 287.347,186.264 288.020,188.311 290.636 C 189.127 291.678,189.174 291.695,188.761 290.800 C 187.655 288.403,185.178 286.104,185.206 287.500 M206.800 327.158 C 206.800 330.533,207.619 337.270,208.197 338.654 L 208.751 339.980 206.616 341.804 C 203.353 344.591,198.434 347.371,193.062 349.461 C 188.010 351.427,185.600 353.128,185.600 354.727 C 185.600 356.875,184.268 357.558,183.585 355.761 C 182.963 354.126,183.772 351.899,185.581 350.265 C 186.999 348.984,187.927 348.586,191.200 347.858 C 191.890 347.704,192.215 347.351,192.247 346.717 C 192.273 346.213,192.784 344.000,193.382 341.800 C 194.058 339.313,194.470 336.779,194.473 335.100 C 194.475 333.108,194.617 332.400,195.014 332.400 C 196.269 332.400,202.786 328.645,204.419 326.980 C 206.616 324.742,206.800 324.756,206.800 327.158 M215.858 342.672 C 219.193 343.385,226.974 343.620,229.900 343.095 L 231.600 342.791 231.613 345.095 C 231.620 346.363,231.798 348.660,232.008 350.200 C 232.218 351.740,232.508 354.035,232.652 355.301 L 232.914 357.601 222.757 357.501 C 213.869 357.413,212.382 357.487,210.853 358.099 C 203.309 361.117,189.707 361.588,187.597 358.905 C 185.109 355.743,186.848 353.424,193.846 350.572 C 199.637 348.212,204.406 345.420,207.120 342.800 L 209.400 340.600 211.058 341.300 C 211.970 341.685,214.130 342.303,215.858 342.672 M228.527 358.798 L 233.253 358.800 233.127 359.897 C 232.923 361.665,231.662 361.968,223.294 362.259 L 215.684 362.523 215.032 361.262 C 214.253 359.755,214.857 359.784,208.995 360.971 C 201.039 362.583,190.136 363.192,189.441 362.065 C 189.351 361.919,191.915 361.792,195.138 361.783 C 201.047 361.766,205.942 361.098,210.155 359.733 C 213.239 358.733,215.904 358.432,220.000 358.621 C 222.090 358.717,225.927 358.797,228.527 358.798 " stroke="none" fill="#1c1c1c" fill-rule="evenodd"></path><path id="path3" d="M207.413 62.900 C 207.063 63.984,205.119 70.592,204.235 73.707 C 202.764 78.887,202.713 79.200,203.344 79.200 C 203.696 79.200,204.136 78.272,204.533 76.692 C 205.367 73.373,207.885 65.363,208.393 64.413 C 208.854 63.553,211.164 64.056,217.900 66.486 C 221.659 67.841,221.606 67.714,220.040 71.670 C 218.424 75.750,217.188 80.345,217.632 80.620 C 218.274 81.016,218.676 80.475,219.197 78.510 C 219.476 77.460,220.431 74.742,221.319 72.470 C 223.411 67.120,223.283 66.642,219.400 65.315 C 212.239 62.867,207.718 61.956,207.413 62.900 M209.680 65.280 C 209.100 65.860,209.040 66.546,209.600 66.200 C 209.820 66.064,210.000 66.163,210.000 66.419 C 210.000 66.676,209.752 66.790,209.449 66.674 C 209.146 66.558,208.696 66.664,208.449 66.911 C 207.801 67.559,207.895 68.185,208.558 67.635 C 208.986 67.279,209.252 67.310,209.709 67.766 C 210.233 68.290,210.330 68.188,210.541 66.889 C 210.804 65.263,210.419 64.541,209.680 65.280 M207.862 69.531 C 207.233 70.227,206.944 71.600,207.426 71.600 C 208.249 71.600,209.200 70.627,209.200 69.786 C 209.200 68.614,208.767 68.532,207.862 69.531 M211.465 71.534 L 209.539 73.489 209.970 75.818 C 210.206 77.099,210.400 78.204,210.400 78.273 C 210.400 78.794,212.170 78.190,213.531 77.204 C 215.502 75.776,215.761 74.911,215.090 72.004 C 214.438 69.178,213.859 69.103,211.465 71.534 " stroke="none" fill="#db0c0c" fill-rule="evenodd"></path><path id="path4" d="M214.505 81.887 C 215.114 81.979,216.014 81.977,216.505 81.882 C 216.997 81.787,216.500 81.711,215.400 81.714 C 214.300 81.717,213.897 81.795,214.505 81.887 M232.493 83.200 C 232.493 83.970,232.575 84.285,232.676 83.900 C 232.776 83.515,232.776 82.885,232.676 82.500 C 232.575 82.115,232.493 82.430,232.493 83.200 M216.500 85.076 C 216.885 85.176,217.515 85.176,217.900 85.076 C 218.285 84.975,217.970 84.893,217.200 84.893 C 216.430 84.893,216.115 84.975,216.500 85.076 M226.300 85.495 C 227.455 85.576,229.345 85.576,230.500 85.495 C 231.655 85.414,230.710 85.348,228.400 85.348 C 226.090 85.348,225.145 85.414,226.300 85.495 M188.300 88.465 C 186.927 88.966,186.829 89.780,188.182 89.440 C 189.679 89.064,191.200 88.444,191.200 88.210 C 191.200 87.876,189.503 88.026,188.300 88.465 M195.600 89.600 C 197.400 90.585,197.727 90.585,197.200 89.600 C 196.904 89.048,196.374 88.805,195.486 88.817 L 194.200 88.834 195.600 89.600 M204.094 91.184 C 205.401 92.712,205.518 93.074,205.779 96.413 C 206.121 100.781,206.486 100.943,207.145 97.018 L 207.646 94.035 210.069 92.418 C 211.401 91.528,212.304 90.800,212.075 90.800 C 211.557 90.800,205.881 90.069,204.044 89.766 L 202.689 89.543 204.094 91.184 M216.382 93.108 C 218.283 96.199,218.148 96.639,213.671 101.928 L 211.531 104.457 212.569 106.025 C 215.610 110.621,220.300 113.079,221.919 110.925 C 223.804 108.417,226.219 101.213,225.772 99.433 C 225.562 98.594,225.649 98.520,226.629 98.708 C 227.406 98.856,227.635 98.780,227.425 98.440 C 227.263 98.179,227.347 97.705,227.610 97.388 C 227.887 97.054,227.979 96.373,227.829 95.772 C 227.620 94.942,227.732 94.691,228.384 94.520 C 228.833 94.403,229.197 94.193,229.194 94.053 C 229.171 93.100,228.051 92.768,222.984 92.214 C 219.913 91.878,216.897 91.496,216.282 91.366 L 215.163 91.128 216.382 93.108 M153.693 122.800 C 153.693 123.570,153.775 123.885,153.876 123.500 C 153.976 123.115,153.976 122.485,153.876 122.100 C 153.775 121.715,153.693 122.030,153.693 122.800 M191.737 135.800 C 191.739 137.560,191.809 138.230,191.893 137.289 C 191.978 136.349,191.977 134.909,191.891 134.089 C 191.805 133.270,191.736 134.040,191.737 135.800 M193.040 145.866 C 193.408 147.399,193.600 147.544,193.600 146.290 C 193.600 145.717,193.413 145.132,193.184 144.990 C 192.911 144.821,192.862 145.123,193.040 145.866 M228.022 228.652 C 225.336 229.734,225.140 230.204,225.287 235.231 L 225.400 239.121 227.843 238.011 L 230.286 236.901 230.493 232.951 C 230.772 227.621,230.736 227.559,228.022 228.652 M223.640 231.100 C 223.771 237.391,224.276 239.847,224.338 234.500 C 224.377 231.192,224.250 229.200,224.000 229.200 C 223.780 229.200,223.618 230.055,223.640 231.100 M222.093 245.200 C 222.093 245.970,222.175 246.285,222.276 245.900 C 222.376 245.515,222.376 244.885,222.276 244.500 C 222.175 244.115,222.093 244.430,222.093 245.200 M232.893 262.000 C 232.893 262.770,232.975 263.085,233.076 262.700 C 233.176 262.315,233.176 261.685,233.076 261.300 C 232.975 260.915,232.893 261.230,232.893 262.000 M233.709 305.600 C 233.709 306.590,233.787 306.995,233.882 306.500 C 233.978 306.005,233.978 305.195,233.882 304.700 C 233.787 304.205,233.709 304.610,233.709 305.600 M204.419 326.980 C 202.786 328.645,196.269 332.400,195.014 332.400 C 194.617 332.400,194.475 333.108,194.473 335.100 C 194.470 336.779,194.058 339.313,193.382 341.800 C 192.784 344.000,192.273 346.213,192.247 346.717 C 192.215 347.351,191.890 347.704,191.200 347.858 C 187.927 348.586,186.999 348.984,185.581 350.265 C 183.772 351.899,182.963 354.126,183.585 355.761 C 184.268 357.558,185.600 356.875,185.600 354.727 C 185.600 353.128,188.010 351.427,193.062 349.461 C 198.434 347.371,203.353 344.591,206.616 341.804 L 208.751 339.980 208.197 338.654 C 207.619 337.270,206.800 330.533,206.800 327.158 C 206.800 324.756,206.616 324.742,204.419 326.980 M207.120 342.800 C 204.406 345.420,199.637 348.212,193.846 350.572 C 186.848 353.424,185.109 355.743,187.597 358.905 C 189.707 361.588,203.309 361.117,210.853 358.099 C 212.382 357.487,213.869 357.413,222.757 357.501 L 232.914 357.601 232.652 355.301 C 232.508 354.035,232.218 351.740,232.008 350.200 C 231.798 348.660,231.620 346.363,231.613 345.095 L 231.600 342.791 229.900 343.095 C 224.948 343.983,215.216 343.056,211.058 341.300 L 209.400 340.600 207.120 342.800 M217.091 358.689 C 217.801 358.777,219.061 358.779,219.891 358.692 C 220.721 358.605,220.140 358.533,218.600 358.531 C 217.060 358.529,216.381 358.600,217.091 358.689 M228.291 359.089 C 229.001 359.177,230.261 359.179,231.091 359.092 C 231.921 359.005,231.340 358.933,229.800 358.931 C 228.260 358.929,227.581 359.000,228.291 359.089 M199.200 362.000 C 199.200 362.220,199.605 362.397,200.100 362.394 C 200.828 362.389,200.885 362.314,200.400 362.000 C 199.624 361.499,199.200 361.499,199.200 362.000 M193.000 362.428 L 191.000 362.674 193.500 362.737 C 194.875 362.772,196.000 362.729,196.000 362.643 C 196.000 362.278,194.873 362.198,193.000 362.428 " stroke="none" fill="#442214" fill-rule="evenodd"></path></g></svg>