<svg id="svg" version="1.1" xmlns="http://www.w3.org/2000/svg" xmlns:xlink="http://www.w3.org/1999/xlink" width="400" height="400" viewBox="0, 0, 400,400"><g id="svgg"><path id="path0" d="M238.900 48.676 C 239.285 48.776,239.915 48.776,240.300 48.676 C 240.685 48.575,240.370 48.493,239.600 48.493 C 238.830 48.493,238.515 48.575,238.900 48.676 M230.096 55.499 C 230.193 57.662,230.411 58.575,230.956 59.099 C 231.663 59.777,231.665 59.756,231.014 58.464 C 230.544 57.528,230.420 56.665,230.603 55.585 C 230.756 54.674,230.679 53.746,230.415 53.321 C 230.065 52.758,229.995 53.234,230.096 55.499 M246.900 54.288 C 246.625 54.386,246.400 54.735,246.400 55.062 C 246.400 55.567,246.498 55.559,247.048 55.010 C 247.752 54.306,247.690 54.006,246.900 54.288 M244.909 56.400 C 244.909 57.390,244.987 57.795,245.082 57.300 C 245.178 56.805,245.178 55.995,245.082 55.500 C 244.987 55.005,244.909 55.410,244.909 56.400 M184.975 60.900 L 183.800 62.200 185.100 61.025 C 186.312 59.930,186.584 59.600,186.275 59.600 C 186.206 59.600,185.621 60.185,184.975 60.900 M266.800 60.125 C 266.800 60.194,267.385 60.779,268.100 61.425 L 269.400 62.600 268.225 61.300 C 267.130 60.088,266.800 59.816,266.800 60.125 M212.200 63.600 C 213.283 64.700,214.260 65.600,214.370 65.600 C 214.480 65.600,213.683 64.700,212.600 63.600 C 211.517 62.500,210.540 61.600,210.430 61.600 C 210.320 61.600,211.117 62.500,212.200 63.600 M238.846 62.169 C 238.821 62.591,238.501 63.267,238.136 63.671 C 237.770 64.075,237.566 64.499,237.682 64.615 C 238.050 64.984,239.257 62.780,239.071 62.076 C 238.923 61.514,238.885 61.529,238.846 62.169 M238.800 65.000 C 238.381 65.505,238.452 65.595,239.251 65.568 C 239.773 65.551,239.974 65.446,239.698 65.334 C 239.421 65.223,239.297 64.967,239.421 64.766 C 239.784 64.179,239.344 64.345,238.800 65.000 M242.500 65.876 C 242.885 65.976,243.515 65.976,243.900 65.876 C 244.285 65.775,243.970 65.693,243.200 65.693 C 242.430 65.693,242.115 65.775,242.500 65.876 M198.800 66.525 C 198.800 66.594,199.385 67.179,200.100 67.825 L 201.400 69.000 200.225 67.700 C 199.130 66.488,198.800 66.216,198.800 66.525 M191.311 67.300 C 190.680 68.115,190.396 69.200,190.813 69.200 C 191.026 69.200,191.200 68.876,191.200 68.480 C 191.200 68.084,191.416 67.544,191.680 67.280 C 191.944 67.016,192.056 66.800,191.929 66.800 C 191.802 66.800,191.524 67.025,191.311 67.300 M274.800 69.400 C 275.546 70.170,276.247 70.800,276.357 70.800 C 276.467 70.800,275.946 70.170,275.200 69.400 C 274.454 68.630,273.753 68.000,273.643 68.000 C 273.533 68.000,274.054 68.630,274.800 69.400 M197.633 71.300 C 197.725 71.355,198.340 71.850,199.000 72.400 L 200.200 73.400 199.230 72.300 C 198.697 71.695,198.082 71.200,197.864 71.200 C 197.645 71.200,197.542 71.245,197.633 71.300 M209.178 73.500 L 207.800 75.000 209.300 73.622 C 210.696 72.338,210.984 72.000,210.678 72.000 C 210.612 72.000,209.937 72.675,209.178 73.500 M145.693 75.200 C 145.968 75.640,146.331 76.000,146.500 76.000 C 146.669 76.000,146.582 75.640,146.307 75.200 C 146.032 74.760,145.669 74.400,145.500 74.400 C 145.331 74.400,145.418 74.760,145.693 75.200 M282.000 75.325 C 282.000 75.394,282.585 75.979,283.300 76.625 L 284.600 77.800 283.425 76.500 C 282.330 75.288,282.000 75.016,282.000 75.325 M198.300 76.282 C 198.795 76.378,199.605 76.378,200.100 76.282 C 200.595 76.187,200.190 76.109,199.200 76.109 C 198.210 76.109,197.805 76.187,198.300 76.282 M206.800 76.424 C 206.800 76.657,206.969 76.743,207.175 76.615 C 207.382 76.488,207.736 76.702,207.963 77.092 C 208.190 77.481,208.381 77.611,208.388 77.380 C 208.402 76.890,207.585 76.000,207.120 76.000 C 206.944 76.000,206.800 76.191,206.800 76.424 M211.605 77.591 C 211.259 78.236,211.294 78.339,211.791 78.148 C 212.126 78.020,212.400 77.664,212.400 77.357 C 212.400 76.576,212.101 76.664,211.605 77.591 M147.534 77.951 C 147.828 78.137,148.053 78.404,148.034 78.545 C 148.015 78.685,148.090 78.800,148.200 78.800 C 148.310 78.800,148.512 78.800,148.649 78.800 C 148.786 78.800,148.674 78.530,148.400 78.200 C 148.126 77.870,147.699 77.603,147.451 77.606 C 147.180 77.610,147.213 77.747,147.534 77.951 M196.674 78.558 C 196.906 79.668,196.868 79.704,195.758 79.430 C 194.885 79.214,194.712 79.257,195.054 79.606 C 195.815 80.380,197.394 79.921,197.445 78.910 C 197.470 78.421,197.350 78.107,197.179 78.213 C 197.008 78.319,196.770 78.179,196.650 77.902 C 196.530 77.626,196.541 77.921,196.674 78.558 M203.664 78.820 C 203.629 79.601,203.376 80.501,203.103 80.820 C 202.824 81.146,202.924 81.118,203.332 80.756 C 203.847 80.300,204.011 79.716,203.894 78.756 L 203.728 77.400 203.664 78.820 M178.976 79.239 C 178.630 79.799,179.502 80.000,179.948 79.462 C 180.280 79.063,180.238 78.933,179.776 78.933 C 179.440 78.933,179.080 79.071,178.976 79.239 M187.759 81.361 C 187.630 81.698,187.617 82.205,187.731 82.487 C 187.844 82.769,187.954 82.550,187.975 82.000 C 188.005 81.203,188.091 81.122,188.400 81.600 C 188.633 81.961,188.790 82.010,188.794 81.724 C 188.804 80.964,188.018 80.689,187.759 81.361 M262.931 85.400 C 262.933 86.940,263.005 87.521,263.092 86.691 C 263.179 85.861,263.177 84.601,263.089 83.891 C 263.000 83.181,262.929 83.860,262.931 85.400 M151.694 84.117 C 152.075 84.426,152.275 84.792,152.137 84.930 C 151.998 85.068,152.180 85.294,152.540 85.432 C 152.901 85.571,153.095 85.846,152.972 86.045 C 152.850 86.243,153.030 86.513,153.372 86.645 C 153.715 86.776,153.895 87.046,153.772 87.245 C 153.650 87.443,153.830 87.713,154.172 87.845 C 154.515 87.976,154.695 88.246,154.572 88.445 C 154.450 88.643,154.630 88.913,154.972 89.045 C 155.315 89.176,155.504 89.433,155.391 89.614 C 155.279 89.796,155.354 90.048,155.558 90.174 C 155.763 90.301,155.885 90.098,155.830 89.724 C 155.775 89.349,155.520 88.973,155.263 88.888 C 155.005 88.802,154.898 88.566,155.023 88.363 C 155.148 88.160,154.970 87.887,154.628 87.755 C 154.285 87.624,154.105 87.354,154.228 87.155 C 154.350 86.957,154.170 86.687,153.828 86.555 C 153.485 86.424,153.305 86.154,153.428 85.955 C 153.550 85.757,153.370 85.487,153.028 85.355 C 152.685 85.224,152.499 84.964,152.614 84.778 C 152.728 84.592,152.412 84.241,151.911 83.998 C 151.096 83.602,151.073 83.615,151.694 84.117 M200.085 88.071 C 200.132 88.660,200.312 89.055,200.485 88.948 C 200.658 88.840,200.800 88.973,200.800 89.243 C 200.800 89.513,200.893 89.640,201.007 89.526 C 201.121 89.412,200.941 88.797,200.608 88.160 L 200.001 87.000 200.085 88.071 M157.263 92.400 C 157.751 93.060,158.211 93.600,158.285 93.600 C 158.360 93.600,158.141 93.060,157.800 92.400 C 157.459 91.740,156.999 91.200,156.778 91.200 C 156.557 91.200,156.775 91.740,157.263 92.400 M243.200 92.084 C 243.200 92.424,243.515 92.949,243.900 93.251 C 244.547 93.758,244.554 93.742,244.000 93.039 C 243.670 92.620,243.460 92.200,243.533 92.105 C 243.607 92.011,243.562 91.828,243.433 91.700 C 243.305 91.572,243.200 91.745,243.200 92.084 M289.714 93.800 C 289.717 94.900,289.795 95.303,289.887 94.695 C 289.979 94.086,289.977 93.186,289.882 92.695 C 289.787 92.203,289.711 92.700,289.714 93.800 M199.500 95.082 C 199.995 95.178,200.805 95.178,201.300 95.082 C 201.795 94.987,201.390 94.909,200.400 94.909 C 199.410 94.909,199.005 94.987,199.500 95.082 M209.700 95.476 C 210.085 95.576,210.715 95.576,211.100 95.476 C 211.485 95.375,211.170 95.293,210.400 95.293 C 209.630 95.293,209.315 95.375,209.700 95.476 M170.128 99.395 C 169.027 100.166,168.000 103.214,168.000 105.708 C 168.000 107.881,169.596 110.737,176.737 121.344 L 180.200 126.488 180.433 122.744 C 180.764 117.428,181.378 116.578,185.211 116.124 L 187.187 115.890 186.493 114.993 C 186.112 114.499,184.441 112.409,182.781 110.348 C 181.120 108.286,178.823 105.402,177.676 103.937 C 173.900 99.117,172.085 98.024,170.128 99.395 M165.287 101.005 C 166.104 101.860,166.838 102.479,166.917 102.380 C 166.997 102.281,166.328 101.581,165.431 100.825 L 163.800 99.450 165.287 101.005 M163.625 101.500 C 164.134 102.215,164.707 102.800,164.899 102.800 C 165.090 102.800,165.151 102.956,165.033 103.147 C 164.756 103.595,166.317 105.017,166.683 104.650 C 166.837 104.497,166.003 103.433,164.830 102.286 C 163.336 100.823,162.976 100.588,163.625 101.500 M206.800 103.400 C 206.800 103.730,207.092 104.000,207.449 104.000 C 207.980 104.000,208.008 103.891,207.600 103.400 C 207.326 103.070,207.034 102.800,206.951 102.800 C 206.868 102.800,206.800 103.070,206.800 103.400 M188.623 104.650 C 188.274 106.039,188.558 106.249,189.120 105.016 C 189.367 104.473,189.416 103.933,189.228 103.817 C 189.039 103.701,188.767 104.076,188.623 104.650 M211.067 110.667 C 210.660 111.073,210.749 111.600,211.224 111.600 C 211.457 111.600,211.517 111.389,211.358 111.132 C 211.170 110.827,211.279 110.745,211.671 110.895 C 212.002 111.022,212.526 110.965,212.836 110.769 C 213.252 110.506,213.128 110.411,212.367 110.406 C 211.798 110.403,211.213 110.520,211.067 110.667 M197.800 113.200 C 197.936 113.420,198.442 113.597,198.924 113.594 C 199.636 113.589,199.688 113.515,199.200 113.200 C 198.412 112.691,197.485 112.691,197.800 113.200 M207.640 114.700 C 207.618 115.635,207.780 116.400,208.000 116.400 C 208.461 116.400,208.461 115.439,208.000 114.000 C 207.728 113.150,207.674 113.256,207.640 114.700 M214.493 114.400 C 214.493 115.170,214.575 115.485,214.676 115.100 C 214.776 114.715,214.776 114.085,214.676 113.700 C 214.575 113.315,214.493 113.630,214.493 114.400 M215.693 114.400 C 215.693 115.170,215.775 115.485,215.876 115.100 C 215.976 114.715,215.976 114.085,215.876 113.700 C 215.775 113.315,215.693 113.630,215.693 114.400 M247.817 114.600 C 248.197 115.480,248.781 117.010,249.114 118.000 C 250.109 120.952,250.430 121.566,250.162 120.000 C 249.907 118.515,248.111 114.072,247.493 113.400 C 247.291 113.180,247.437 113.720,247.817 114.600 M240.800 115.576 C 240.800 116.029,240.980 116.400,241.200 116.400 C 241.420 116.400,241.600 116.141,241.600 115.824 C 241.600 115.507,241.420 115.136,241.200 115.000 C 240.980 114.864,240.800 115.123,240.800 115.576 M184.072 117.655 C 182.602 118.078,181.600 119.835,181.600 121.988 L 181.600 123.202 183.054 121.593 C 184.054 120.486,185.051 119.848,186.254 119.545 C 187.214 119.303,188.000 118.985,188.000 118.839 C 188.000 118.582,185.820 117.163,185.538 117.236 C 185.462 117.256,184.802 117.444,184.072 117.655 M240.876 121.200 C 240.867 121.750,241.003 123.010,241.180 124.000 C 241.420 125.350,241.507 125.500,241.527 124.600 C 241.542 123.940,241.405 122.680,241.223 121.800 C 241.016 120.798,240.886 120.574,240.876 121.200 M195.747 122.901 C 197.605 124.813,198.073 124.971,196.965 123.312 C 196.557 122.701,196.267 122.052,196.321 121.870 C 196.375 121.689,196.235 121.655,196.010 121.794 C 195.784 121.933,195.600 121.857,195.600 121.624 C 195.600 121.391,195.261 121.200,194.847 121.200 C 194.251 121.200,194.438 121.554,195.747 122.901 M250.012 122.600 C 250.012 123.040,250.187 123.670,250.400 124.000 C 250.721 124.497,250.788 124.462,250.788 123.800 C 250.788 123.360,250.613 122.730,250.400 122.400 C 250.079 121.903,250.012 121.938,250.012 122.600 M255.709 124.000 C 255.709 124.990,255.787 125.395,255.882 124.900 C 255.978 124.405,255.978 123.595,255.882 123.100 C 255.787 122.605,255.709 123.010,255.709 124.000 M256.920 124.800 C 256.920 126.010,256.995 126.505,257.087 125.900 C 257.178 125.295,257.178 124.305,257.087 123.700 C 256.995 123.095,256.920 123.590,256.920 124.800 M188.175 124.900 L 187.000 126.200 188.300 125.025 C 189.015 124.379,189.600 123.794,189.600 123.725 C 189.600 123.416,189.270 123.688,188.175 124.900 M240.428 126.433 C 240.444 126.965,240.619 127.760,240.819 128.200 C 241.071 128.758,241.107 128.515,240.938 127.400 C 240.655 125.543,240.387 125.036,240.428 126.433 M242.800 127.400 C 242.800 127.730,242.980 128.000,243.200 128.000 C 243.420 128.000,243.600 127.730,243.600 127.400 C 243.600 127.070,243.420 126.800,243.200 126.800 C 242.980 126.800,242.800 127.070,242.800 127.400 M250.514 128.600 C 250.517 129.700,250.595 130.103,250.687 129.495 C 250.779 128.886,250.777 127.986,250.682 127.495 C 250.587 127.003,250.511 127.500,250.514 128.600 M246.054 128.867 C 246.025 129.234,245.884 129.864,245.741 130.267 C 245.541 130.833,245.595 130.896,245.975 130.546 C 246.246 130.297,246.387 129.667,246.288 129.146 C 246.190 128.626,246.084 128.500,246.054 128.867 M240.012 130.000 C 240.012 130.330,240.187 130.870,240.400 131.200 C 240.745 131.733,240.788 131.733,240.788 131.200 C 240.788 130.870,240.613 130.330,240.400 130.000 C 240.055 129.467,240.012 129.467,240.012 130.000 M202.076 133.741 C 200.955 135.167,199.625 136.464,199.119 136.623 C 198.614 136.782,196.916 137.877,195.347 139.056 C 193.778 140.235,192.293 141.200,192.047 141.200 C 189.867 141.200,195.883 144.460,199.493 145.235 C 202.434 145.866,203.026 146.398,203.816 149.113 C 204.481 151.403,207.358 154.723,216.358 163.590 L 219.392 166.579 219.697 164.463 C 220.494 158.919,225.124 147.178,227.485 144.712 C 228.704 143.439,229.063 143.631,222.800 142.216 C 212.160 139.813,211.864 139.624,210.971 134.654 C 210.664 132.942,209.065 131.948,205.757 131.414 C 204.114 131.149,204.113 131.150,202.076 133.741 M146.042 135.775 C 146.375 136.108,150.000 137.571,150.000 137.372 C 150.000 137.262,149.175 136.818,148.167 136.386 C 146.379 135.620,145.687 135.421,146.042 135.775 M185.800 141.551 C 184.610 141.806,184.130 142.838,185.110 143.037 C 185.391 143.094,185.436 143.049,185.210 142.937 C 184.478 142.574,184.776 142.000,185.700 141.994 C 186.195 141.991,186.870 141.813,187.200 141.600 C 187.859 141.174,187.604 141.166,185.800 141.551 M228.835 145.515 C 224.547 150.023,219.751 165.929,221.757 168.991 C 224.612 173.348,231.698 162.570,233.202 151.583 C 234.140 144.732,232.176 142.003,228.835 145.515 M234.901 148.200 C 234.905 149.080,234.987 149.393,235.083 148.895 C 235.179 148.398,235.175 147.678,235.075 147.295 C 234.975 146.913,234.896 147.320,234.901 148.200 M236.400 150.148 C 236.400 150.806,237.118 151.415,237.474 151.059 C 237.596 150.938,237.404 150.547,237.048 150.190 C 236.488 149.631,236.400 149.625,236.400 150.148 M177.375 154.900 L 176.200 156.200 177.500 155.025 C 178.712 153.930,178.984 153.600,178.675 153.600 C 178.606 153.600,178.021 154.185,177.375 154.900 M207.200 156.600 C 208.395 157.810,209.463 158.800,209.573 158.800 C 209.683 158.800,208.795 157.810,207.600 156.600 C 206.405 155.390,205.337 154.400,205.227 154.400 C 205.117 154.400,206.005 155.390,207.200 156.600 M179.763 165.600 C 179.763 169.230,179.823 170.715,179.898 168.900 C 179.972 167.085,179.972 164.115,179.898 162.300 C 179.823 160.485,179.763 161.970,179.763 165.600 M185.314 161.000 C 185.317 162.100,185.395 162.503,185.487 161.895 C 185.579 161.286,185.577 160.386,185.482 159.895 C 185.387 159.403,185.311 159.900,185.314 161.000 M215.800 165.600 C 218.212 168.020,220.276 170.000,220.386 170.000 C 220.496 170.000,218.612 168.020,216.200 165.600 C 213.788 163.180,211.724 161.200,211.614 161.200 C 211.504 161.200,213.388 163.180,215.800 165.600 M231.709 164.000 C 231.709 164.990,231.787 165.395,231.882 164.900 C 231.978 164.405,231.978 163.595,231.882 163.100 C 231.787 162.605,231.709 163.010,231.709 164.000 M169.293 165.200 C 169.293 165.970,169.375 166.285,169.476 165.900 C 169.576 165.515,169.576 164.885,169.476 164.500 C 169.375 164.115,169.293 164.430,169.293 165.200 M170.800 185.195 C 170.800 185.664,170.966 185.944,171.170 185.819 C 171.373 185.693,171.622 185.907,171.723 186.295 C 171.894 186.949,171.911 186.947,171.954 186.271 C 171.979 185.871,171.730 185.273,171.400 184.943 C 170.867 184.410,170.800 184.438,170.800 185.195 M219.400 194.470 C 218.960 194.716,217.514 195.948,216.186 197.209 C 213.606 199.659,211.286 200.434,208.416 199.804 L 207.200 199.536 207.200 202.203 L 207.200 204.870 208.900 204.609 C 211.645 204.186,217.453 202.416,220.231 201.157 C 223.242 199.792,227.096 198.814,229.500 198.806 C 231.137 198.800,232.320 196.816,230.700 196.793 C 230.425 196.789,228.678 196.159,226.819 195.393 C 223.337 193.959,220.868 193.652,219.400 194.470 M178.400 194.854 C 177.630 195.063,175.716 195.607,174.146 196.062 L 171.291 196.889 170.201 199.667 C 168.886 203.021,168.765 202.881,172.200 201.980 C 176.832 200.766,182.573 201.115,189.908 203.058 C 192.049 203.625,195.234 204.302,196.986 204.562 L 200.172 205.036 200.521 206.618 C 200.950 208.562,200.598 216.439,199.988 218.538 C 199.435 220.443,199.407 220.419,202.214 220.518 C 205.223 220.625,205.200 220.707,205.485 209.100 C 205.697 200.457,205.672 200.000,204.974 200.000 C 204.403 200.000,204.347 200.107,204.720 200.480 C 206.923 202.683,203.705 206.102,200.829 204.615 C 199.293 203.821,198.517 201.269,199.607 200.596 C 200.275 200.183,199.628 199.600,198.502 199.600 C 196.699 199.600,192.288 198.344,190.245 197.248 C 189.170 196.672,187.550 195.806,186.645 195.324 C 184.843 194.364,181.001 194.145,178.400 194.854 M214.575 196.900 L 213.400 198.200 214.700 197.025 C 215.415 196.379,216.000 195.794,216.000 195.725 C 216.000 195.416,215.670 195.688,214.575 196.900 M227.502 200.434 C 226.238 200.619,223.178 201.569,220.702 202.544 C 215.597 204.554,210.709 205.997,208.974 206.006 C 206.938 206.017,206.871 206.208,206.840 212.111 C 206.785 222.485,206.223 223.297,200.023 221.968 C 197.477 221.421,197.485 221.440,198.432 218.397 C 199.073 216.336,199.202 214.938,199.112 211.027 L 199.000 206.200 196.600 205.964 C 195.280 205.834,192.580 205.265,190.600 204.700 C 182.404 202.359,175.863 202.010,171.041 203.657 L 168.283 204.600 166.698 208.800 C 165.153 212.893,164.258 215.543,160.571 226.926 C 159.587 229.965,157.802 234.666,156.605 237.371 C 153.859 243.576,153.703 244.312,153.196 253.462 C 152.701 262.386,152.254 266.451,151.198 271.638 C 150.420 275.457,150.420 275.489,151.214 278.353 C 151.653 279.936,152.049 281.689,152.096 282.248 C 152.382 285.710,162.758 290.733,173.491 292.605 C 177.829 293.361,178.000 293.355,178.000 292.439 C 178.000 292.020,178.922 290.805,180.049 289.739 C 182.692 287.238,183.580 285.312,183.591 282.051 C 183.598 279.972,183.698 279.584,184.134 279.945 C 184.557 280.296,185.375 279.252,188.093 274.894 C 194.400 264.777,195.214 262.470,200.188 240.600 C 201.173 236.268,201.875 233.360,203.225 228.017 C 203.893 225.374,204.387 226.815,203.937 230.096 C 203.686 231.926,203.705 233.049,203.995 233.591 C 204.230 234.030,205.883 238.577,207.667 243.695 C 209.452 248.813,211.533 254.440,212.292 256.200 C 213.051 257.960,214.440 261.200,215.379 263.400 C 217.667 268.758,219.835 273.025,221.352 275.150 L 222.600 276.900 222.820 275.550 C 223.013 274.360,223.104 274.547,223.589 277.128 C 224.133 280.028,224.144 280.046,224.762 279.028 C 225.322 278.104,226.000 277.658,226.000 278.213 C 226.000 278.331,225.550 279.315,225.000 280.400 C 223.600 283.162,223.674 284.297,225.300 285.004 L 226.600 285.569 225.329 285.584 C 224.629 285.593,223.798 285.341,223.482 285.024 C 222.981 284.524,222.850 284.572,222.475 285.394 C 222.139 286.133,222.175 286.447,222.641 286.834 C 222.968 287.106,223.147 287.560,223.039 287.843 C 222.304 289.757,240.245 291.220,248.052 289.883 L 249.904 289.565 251.173 286.542 C 257.520 271.420,257.224 269.689,241.801 231.800 C 238.602 223.940,236.972 218.962,235.383 212.200 C 234.814 209.780,233.782 206.045,233.089 203.900 C 231.674 199.519,232.071 199.765,227.502 200.434 M207.392 236.914 C 208.724 239.812,212.148 250.385,211.851 250.682 C 211.615 250.919,209.480 245.562,207.993 241.000 C 207.276 238.800,206.377 236.370,205.996 235.600 C 205.615 234.830,205.173 233.750,205.014 233.200 L 204.726 232.200 205.395 233.114 C 205.764 233.617,206.662 235.327,207.392 236.914 M148.392 284.413 C 143.610 291.865,144.430 294.435,153.379 300.046 C 156.295 301.874,156.429 301.844,157.168 299.200 C 157.444 298.210,158.481 295.902,159.472 294.070 C 160.463 292.239,161.212 290.709,161.137 290.670 C 161.062 290.632,159.740 289.976,158.200 289.213 C 156.405 288.324,154.400 286.853,152.613 285.113 C 149.304 281.891,149.942 281.997,148.392 284.413 M220.775 289.447 C 220.105 291.180,219.215 295.609,219.207 297.245 C 219.189 300.879,236.617 305.131,245.418 303.639 C 250.676 302.748,250.622 302.789,250.460 299.911 C 250.383 298.540,250.533 296.094,250.794 294.476 C 251.392 290.773,251.802 290.983,245.101 291.561 C 234.934 292.437,224.501 291.263,221.953 288.957 C 221.262 288.332,221.195 288.360,220.775 289.447 M160.309 295.100 C 159.274 297.245,158.216 299.870,157.957 300.934 C 157.699 301.998,157.259 302.956,156.980 303.063 C 155.960 303.454,150.166 299.818,147.100 296.862 C 146.055 295.854,145.200 295.151,145.200 295.298 C 145.200 295.445,144.496 299.759,143.635 304.883 C 141.874 315.371,141.284 319.295,141.033 322.200 C 140.936 323.327,140.229 325.579,139.413 327.360 C 137.861 330.748,137.861 330.710,139.418 334.546 C 139.673 335.174,139.585 335.249,138.861 335.019 C 138.083 334.772,138.000 334.893,137.997 336.273 C 137.996 337.113,137.649 339.240,137.228 341.000 C 135.728 347.260,135.719 348.892,137.175 350.118 C 139.809 352.334,145.200 353.110,153.400 352.455 C 163.368 351.659,165.210 350.663,165.186 346.078 C 165.162 341.607,163.074 333.197,161.911 332.893 C 161.213 332.710,161.250 332.585,162.340 331.446 C 162.997 330.761,163.607 329.750,163.697 329.200 L 163.861 328.200 164.288 329.200 L 164.714 330.200 165.007 329.074 C 165.168 328.455,165.216 326.493,165.113 324.716 C 164.969 322.243,165.032 321.629,165.379 322.104 C 165.755 322.618,166.307 321.923,168.588 318.062 C 170.104 315.498,171.941 312.545,172.672 311.499 C 174.611 308.723,174.768 308.930,169.873 307.818 C 162.129 306.060,161.392 303.868,165.553 294.974 L 166.689 292.548 164.791 291.874 C 163.747 291.503,162.735 291.200,162.542 291.200 C 162.349 291.200,161.344 292.955,160.309 295.100 M166.683 295.293 C 166.109 296.672,165.376 298.790,165.055 300.000 C 163.876 304.434,163.872 304.313,165.214 305.007 C 166.202 305.518,177.781 308.386,178.900 308.397 C 179.065 308.399,179.200 306.625,179.200 304.455 C 179.200 300.966,179.592 297.540,180.220 295.542 C 180.394 294.988,179.965 294.839,177.514 294.603 C 174.876 294.349,169.981 293.482,168.363 292.983 C 167.890 292.837,167.458 293.431,166.683 295.293 M219.672 305.685 C 217.705 326.192,217.854 349.750,219.957 350.626 C 220.759 350.960,246.323 351.541,261.691 351.575 L 273.182 351.600 273.882 350.532 C 274.314 349.872,274.639 348.439,274.733 346.785 C 274.995 342.151,276.140 342.809,253.600 334.641 C 250.410 333.485,246.558 331.878,245.040 331.070 C 241.848 329.370,240.749 329.283,236.202 330.372 C 232.164 331.338,231.821 331.120,235.582 329.978 C 237.611 329.362,239.131 329.157,240.782 329.276 C 242.588 329.407,243.070 329.327,242.915 328.922 C 242.784 328.582,241.858 328.377,240.257 328.333 L 237.800 328.266 240.193 328.033 L 242.585 327.800 242.891 325.800 C 243.674 320.673,244.641 316.139,246.079 310.854 C 247.923 304.075,248.244 304.799,243.600 305.260 C 236.813 305.935,228.848 304.461,220.772 301.036 C 220.234 300.808,220.076 301.476,219.672 305.685 M223.505 352.283 C 224.002 352.379,224.722 352.375,225.105 352.275 C 225.487 352.175,225.080 352.096,224.200 352.101 C 223.320 352.105,223.007 352.187,223.505 352.283 M233.500 352.698 C 235.755 352.770,239.445 352.770,241.700 352.698 C 243.955 352.627,242.110 352.569,237.600 352.569 C 233.090 352.569,231.245 352.627,233.500 352.698 M261.143 353.100 C 271.079 353.207,271.655 353.253,271.143 353.907 C 270.652 354.534,270.667 354.547,271.300 354.051 C 272.747 352.916,271.761 352.802,261.300 352.893 L 250.600 352.986 261.143 353.100 M223.505 355.483 C 224.002 355.579,224.722 355.575,225.105 355.475 C 225.487 355.375,225.080 355.296,224.200 355.301 C 223.320 355.305,223.007 355.387,223.505 355.483 M228.500 355.496 C 229.765 355.575,231.835 355.575,233.100 355.496 C 234.365 355.416,233.330 355.351,230.800 355.351 C 228.270 355.351,227.235 355.416,228.500 355.496 M244.515 355.496 C 245.788 355.576,247.768 355.575,248.915 355.494 C 250.062 355.414,249.020 355.349,246.600 355.350 C 244.180 355.351,243.242 355.416,244.515 355.496 M263.700 355.476 C 264.085 355.576,264.715 355.576,265.100 355.476 C 265.485 355.375,265.170 355.293,264.400 355.293 C 263.630 355.293,263.315 355.375,263.700 355.476 " stroke="none" fill="#5b382b" fill-rule="evenodd"></path><path id="path1" d="M231.361 95.357 C 231.219 95.728,231.528 96.337,232.138 96.887 C 233.703 98.296,236.006 103.018,235.965 104.733 C 235.931 106.154,235.886 106.106,234.514 103.200 C 233.735 101.550,232.984 100.110,232.846 100.000 C 232.708 99.890,232.092 99.125,231.477 98.300 C 230.252 96.657,229.272 96.416,228.278 97.514 C 227.681 98.174,227.690 98.264,228.407 98.711 C 229.491 99.388,230.801 102.115,230.796 103.684 C 230.792 104.981,230.778 104.971,229.847 103.000 C 228.567 100.292,226.729 98.570,225.736 99.148 C 225.331 99.383,225.204 99.581,225.454 99.588 C 226.046 99.604,227.089 101.212,227.445 102.658 C 227.724 103.791,227.716 103.788,226.390 102.300 C 224.927 100.659,224.363 100.481,223.586 101.417 C 223.162 101.927,223.215 102.223,223.890 103.136 C 227.936 108.609,230.642 119.856,232.361 138.346 C 232.667 141.633,232.910 142.643,233.536 143.226 C 235.862 145.393,235.435 153.997,232.663 160.827 C 232.356 161.582,231.987 163.820,231.843 165.800 C 231.600 169.139,229.256 184.959,228.465 188.600 C 228.274 189.480,228.226 191.267,228.359 192.571 L 228.600 194.943 230.800 195.442 C 234.180 196.208,234.837 194.311,232.469 190.622 C 231.210 188.659,230.837 187.200,231.595 187.200 C 231.812 187.200,232.252 187.830,232.574 188.600 C 232.896 189.370,233.338 190.000,233.557 190.000 C 233.776 190.000,233.427 188.720,232.781 187.155 C 231.711 184.559,231.555 183.278,232.371 183.782 C 232.545 183.890,232.790 182.588,232.915 180.889 C 233.403 174.282,234.864 161.345,235.449 158.446 C 235.788 156.771,236.144 153.998,236.240 152.285 C 236.431 148.905,238.758 139.179,239.993 136.600 C 240.869 134.770,242.567 129.036,242.995 126.462 C 243.155 125.495,243.436 124.876,243.626 125.066 C 244.052 125.492,243.141 129.994,241.819 134.000 C 240.426 138.221,238.734 144.867,238.987 145.121 C 239.104 145.238,239.200 145.105,239.200 144.826 C 239.200 144.546,239.911 142.802,240.779 140.948 C 241.648 139.095,242.161 137.700,241.921 137.849 C 240.704 138.601,243.086 133.013,244.829 131.029 L 246.136 129.539 245.666 126.006 C 244.712 118.842,242.233 112.318,236.092 100.802 C 233.102 95.194,231.938 93.854,231.361 95.357 M219.358 106.700 C 219.026 107.773,218.123 109.622,217.009 111.511 C 216.454 112.452,216.000 113.761,216.000 114.421 C 216.000 115.080,215.656 116.598,215.236 117.794 C 214.750 119.177,214.548 120.532,214.680 121.519 C 214.811 122.497,214.664 123.503,214.282 124.242 C 213.771 125.229,213.760 125.531,214.210 126.146 C 214.862 127.038,214.665 127.651,212.931 130.112 C 211.939 131.521,211.678 132.205,211.940 132.712 C 212.135 133.090,212.418 134.120,212.569 135.000 C 213.048 137.802,213.144 137.916,215.719 138.768 C 218.938 139.833,227.237 141.697,227.516 141.417 C 228.100 140.834,223.798 115.465,222.799 113.598 C 222.586 113.200,221.852 111.328,221.168 109.438 C 219.855 105.809,219.705 105.581,219.358 106.700 M163.000 110.475 C 154.646 112.915,145.625 119.415,140.979 126.340 C 139.137 129.085,139.074 129.600,140.581 129.600 C 144.327 129.600,155.424 133.572,158.452 135.997 L 159.903 137.160 161.892 136.404 C 162.986 135.989,165.393 135.344,167.241 134.973 C 170.788 134.259,176.802 131.567,176.797 130.696 C 176.776 127.390,174.286 120.669,171.204 115.600 C 166.945 108.596,167.738 109.091,163.000 110.475 M186.532 113.273 C 190.371 118.578,191.581 119.678,193.407 119.530 L 195.000 119.400 193.101 118.284 C 190.880 116.978,189.501 115.597,188.284 113.459 C 187.788 112.589,186.765 111.590,185.935 111.167 L 184.463 110.416 186.532 113.273 M241.724 120.400 C 241.653 125.055,240.940 130.711,240.010 134.000 C 239.561 135.587,239.671 133.377,240.388 126.400 C 240.603 124.310,240.789 120.620,240.801 118.200 C 240.820 114.561,240.909 113.938,241.312 114.600 C 241.639 115.137,241.775 117.046,241.724 120.400 M245.502 131.465 C 245.399 131.649,244.809 132.700,244.191 133.800 C 243.574 134.900,243.233 135.620,243.435 135.400 C 243.637 135.180,244.422 134.325,245.180 133.499 C 246.171 132.420,246.436 131.876,246.124 131.564 C 245.886 131.326,245.606 131.281,245.502 131.465 M189.000 142.859 C 188.195 143.083,187.397 143.820,186.578 145.097 L 185.356 147.000 185.499 153.600 C 185.577 157.230,185.687 166.590,185.743 174.400 L 185.844 188.600 187.226 191.768 C 188.786 195.344,189.387 195.832,193.866 197.151 C 198.873 198.626,203.786 198.938,204.092 197.800 C 204.217 197.335,204.635 197.354,207.555 197.956 C 212.363 198.947,214.319 198.128,216.653 194.145 C 217.707 192.347,218.400 191.912,218.400 193.049 C 218.400 193.971,219.210 193.237,221.465 190.273 C 223.651 187.398,223.726 187.181,224.785 180.600 C 225.246 177.740,225.851 174.305,226.130 172.966 L 226.637 170.532 225.619 171.063 C 222.600 172.639,221.931 172.143,209.803 159.323 C 203.348 152.501,202.877 151.897,202.246 149.649 L 201.573 147.251 199.460 146.813 C 197.288 146.362,193.129 144.560,191.257 143.259 C 190.454 142.700,189.912 142.604,189.000 142.859 M176.415 157.674 C 174.993 158.984,172.824 160.677,171.594 161.436 L 169.359 162.816 169.860 168.508 C 170.135 171.639,170.540 176.627,170.760 179.593 C 170.986 182.652,171.341 185.047,171.580 185.127 C 172.332 185.377,172.025 186.747,170.753 188.814 C 169.256 191.247,169.410 191.576,171.409 190.220 C 173.044 189.110,173.432 189.005,173.784 189.574 C 173.911 189.779,173.008 190.615,171.779 191.432 C 166.100 195.201,167.333 196.952,174.000 194.588 C 179.893 192.499,179.841 192.701,179.655 172.414 C 179.482 153.524,179.724 154.624,176.415 157.674 M180.398 190.300 C 180.396 190.685,180.160 191.450,179.874 192.000 L 179.353 193.000 182.826 193.024 L 186.300 193.048 185.712 191.324 L 185.125 189.600 182.762 189.600 C 180.780 189.600,180.400 189.713,180.398 190.300 M221.991 191.500 L 221.123 192.600 223.461 192.851 C 224.748 192.989,226.112 193.232,226.494 193.391 C 227.094 193.642,227.175 193.460,227.094 192.043 L 227.000 190.404 224.929 190.402 C 223.146 190.400,222.738 190.553,221.991 191.500 " stroke="none" fill="#bcbc74" fill-rule="evenodd"></path><path id="path2" d="M236.069 51.502 C 234.496 57.459,234.675 59.600,236.746 59.600 C 237.658 59.600,238.687 59.911,239.256 60.358 C 241.077 61.791,243.287 61.627,244.099 60.000 C 246.017 56.161,244.169 52.926,241.967 56.267 C 240.032 59.204,238.738 59.135,239.755 56.150 C 240.110 55.109,240.400 53.750,240.400 53.129 C 240.400 51.788,240.269 51.815,242.130 52.765 C 242.955 53.185,244.523 53.652,245.615 53.802 C 247.761 54.097,247.871 54.186,247.071 54.986 C 246.780 55.277,246.215 56.750,245.816 58.258 C 244.852 61.905,243.917 62.933,241.780 62.696 C 239.843 62.481,238.303 65.022,240.158 65.373 C 242.774 65.868,250.213 66.588,252.760 66.594 C 255.074 66.599,255.743 66.731,255.826 67.200 C 256.710 72.204,261.574 83.252,262.540 82.450 C 262.993 82.073,263.122 82.853,263.307 87.099 C 263.579 93.331,264.435 96.319,267.062 100.206 C 272.175 107.774,272.350 108.110,270.558 106.935 C 267.778 105.114,263.490 97.897,262.692 93.697 C 262.287 91.568,262.103 91.243,261.215 91.084 C 260.657 90.984,259.030 90.587,257.600 90.202 C 254.406 89.341,250.388 89.558,247.176 90.765 C 243.278 92.229,243.296 92.131,246.241 96.000 C 252.693 104.473,256.610 115.336,257.299 126.662 L 257.400 128.324 261.125 127.380 C 266.082 126.123,268.371 125.024,273.663 121.357 C 276.696 119.254,279.235 117.858,281.672 116.952 C 291.029 113.473,293.613 110.793,291.760 106.487 C 290.590 103.767,290.397 102.652,289.780 95.043 C 288.862 83.746,287.025 79.711,280.200 74.008 C 276.135 70.612,274.645 69.084,268.487 62.000 C 263.359 56.101,259.796 53.062,257.000 52.204 C 254.411 51.409,242.064 48.944,239.143 48.639 L 236.887 48.403 236.069 51.502 M233.678 49.485 C 231.323 49.935,230.873 57.955,233.135 59.165 C 233.786 59.514,233.854 59.324,233.881 57.074 C 233.898 55.713,234.201 53.494,234.556 52.142 C 235.291 49.336,235.310 49.180,234.900 49.254 C 234.735 49.284,234.185 49.388,233.678 49.485 M230.493 52.400 C 230.493 53.170,230.575 53.485,230.676 53.100 C 230.776 52.715,230.776 52.085,230.676 51.700 C 230.575 51.315,230.493 51.630,230.493 52.400 M195.000 57.042 C 188.297 57.905,185.208 59.798,182.292 64.825 C 180.507 67.903,178.787 75.200,179.846 75.200 C 180.804 75.200,183.200 76.539,183.200 77.074 C 183.200 77.727,182.740 77.738,181.377 77.117 C 180.074 76.523,177.836 78.739,178.262 80.200 C 178.973 82.640,182.923 88.800,183.776 88.800 C 184.905 88.800,185.305 89.192,184.799 89.802 C 184.529 90.127,184.832 91.273,185.763 93.438 C 187.278 96.966,187.087 96.813,196.707 102.195 L 200.814 104.493 203.858 104.207 L 206.902 103.922 206.670 101.961 C 206.542 100.882,206.588 100.000,206.772 100.000 C 207.160 100.000,207.587 101.399,207.595 102.700 C 207.601 103.720,207.946 103.775,210.686 103.187 C 213.662 102.549,215.841 98.162,217.210 90.054 C 218.228 84.021,218.262 84.273,216.575 85.268 C 214.199 86.670,214.002 85.561,216.329 83.889 C 217.417 83.107,218.797 81.826,219.395 81.042 L 220.482 79.616 219.041 76.994 C 218.121 75.320,217.599 73.835,217.596 72.886 C 217.576 65.123,204.336 55.839,195.000 57.042 M237.697 61.100 C 238.038 61.485,238.405 62.160,238.512 62.600 C 238.671 63.250,238.716 63.208,238.754 62.380 C 238.800 61.358,238.174 60.400,237.458 60.400 C 237.248 60.400,237.355 60.715,237.697 61.100 M231.912 61.255 C 230.240 62.287,231.695 65.606,233.800 65.563 C 235.345 65.532,238.236 64.476,236.900 64.430 C 236.029 64.401,235.837 63.820,235.882 61.363 C 235.891 60.898,232.633 60.810,231.912 61.255 M236.800 61.953 C 236.800 62.393,236.980 62.864,237.200 63.000 C 237.420 63.136,237.600 62.887,237.600 62.447 C 237.600 62.007,237.420 61.536,237.200 61.400 C 236.980 61.264,236.800 61.513,236.800 61.953 M195.595 64.000 C 195.561 65.238,195.018 65.996,194.322 65.775 C 193.752 65.594,193.486 65.751,193.326 66.360 C 193.207 66.817,192.942 67.088,192.737 66.961 C 192.180 66.617,191.200 67.587,191.200 68.482 C 191.200 68.940,190.992 69.191,190.700 69.086 C 190.425 68.986,189.884 69.180,189.498 69.516 C 189.111 69.853,188.720 70.053,188.627 69.960 C 188.267 69.601,189.423 66.800,189.862 66.968 C 190.415 67.181,191.718 65.852,191.334 65.468 C 191.187 65.320,191.474 65.200,191.971 65.200 C 192.495 65.200,192.952 64.906,193.058 64.500 C 193.222 63.875,195.611 63.404,195.595 64.000 M145.600 66.056 C 145.600 66.307,145.840 66.712,146.134 66.956 C 146.428 67.200,148.538 70.100,150.823 73.400 C 154.726 79.039,168.535 97.389,169.170 97.782 C 169.330 97.881,169.830 97.865,170.280 97.747 C 171.194 97.508,168.244 93.298,159.781 82.757 C 157.505 79.923,154.372 75.737,152.818 73.454 C 148.818 67.577,145.600 64.279,145.600 66.056 M198.372 66.186 C 198.995 66.508,199.931 67.276,200.452 67.893 C 201.028 68.575,201.695 68.957,202.152 68.868 C 203.353 68.634,203.589 69.593,202.816 71.569 C 201.945 73.792,201.006 74.059,199.249 72.580 C 197.728 71.300,197.733 71.298,194.099 74.405 C 189.726 78.144,188.823 77.039,191.603 71.351 C 193.652 67.159,196.319 65.124,198.372 66.186 M143.953 68.447 L 143.105 69.295 144.134 70.147 C 145.013 70.877,156.734 88.199,161.289 95.502 C 162.790 97.909,166.233 102.000,166.757 102.000 C 166.912 102.000,167.272 101.357,167.556 100.571 L 168.073 99.142 160.509 89.071 C 152.331 78.181,148.946 73.492,146.668 69.900 C 145.005 67.277,145.082 67.318,143.953 68.447 M213.247 69.281 C 216.761 70.719,216.659 72.000,213.029 72.000 C 211.186 72.000,210.807 72.155,209.600 73.400 C 207.454 75.614,205.803 75.164,205.328 72.236 C 205.100 70.827,205.121 70.800,206.448 70.784 C 207.351 70.773,208.260 70.375,209.185 69.584 C 210.839 68.170,210.578 68.189,213.247 69.281 M143.852 72.315 C 143.727 72.518,144.095 73.115,144.670 73.642 L 145.715 74.600 144.979 73.400 C 144.574 72.740,144.206 72.143,144.161 72.073 C 144.117 72.004,143.978 72.113,143.852 72.315 M216.741 75.346 C 217.916 77.809,211.544 82.184,209.604 80.244 C 209.360 80.000,209.626 81.036,210.194 82.547 C 210.763 84.057,211.251 85.901,211.279 86.646 C 211.339 88.258,211.996 88.486,212.009 86.900 L 212.018 85.800 212.800 86.800 C 213.230 87.350,213.586 87.594,213.591 87.343 C 213.609 86.412,214.978 86.332,215.696 87.220 C 219.003 91.304,212.760 97.201,207.715 94.759 C 206.012 93.934,205.925 93.931,203.422 94.609 C 198.567 95.923,195.170 94.378,194.040 90.341 C 193.576 88.685,193.404 88.525,191.276 87.759 C 189.009 86.944,189.006 86.940,188.265 84.460 C 187.007 80.247,188.037 79.502,189.393 83.644 C 190.091 85.775,190.223 85.919,192.025 86.495 L 193.922 87.102 194.773 85.951 C 195.797 84.566,196.305 84.502,196.767 85.700 C 197.167 86.735,198.551 88.069,200.000 88.816 C 200.904 89.282,200.949 89.269,200.467 88.685 C 199.829 87.912,200.125 86.773,201.220 85.782 C 202.286 84.817,203.107 85.519,202.343 86.743 C 201.768 87.664,202.153 88.135,204.554 89.446 C 205.660 90.050,205.774 90.029,207.312 88.938 C 210.073 86.980,210.124 86.726,208.635 82.400 C 206.659 76.661,206.460 73.636,208.294 77.232 C 208.736 78.097,208.790 78.115,208.807 77.400 C 208.876 74.423,215.484 72.712,216.741 75.346 M203.500 77.090 C 206.286 80.782,198.410 84.470,193.758 81.652 C 192.733 81.031,192.099 80.382,192.211 80.067 C 192.315 79.774,192.400 79.193,192.400 78.777 C 192.400 76.454,201.927 75.006,203.500 77.090 M148.400 79.200 C 148.870 79.860,149.344 80.400,149.454 80.400 C 149.564 80.400,149.270 79.860,148.800 79.200 C 148.330 78.540,147.856 78.000,147.746 78.000 C 147.636 78.000,147.930 78.540,148.400 79.200 M182.038 78.827 C 183.319 79.739,183.497 80.642,182.631 81.824 C 182.129 82.508,182.156 82.754,182.861 83.896 C 184.263 86.169,183.533 86.875,182.090 84.641 C 180.859 82.735,180.843 82.651,181.489 81.557 C 182.419 79.983,181.188 78.325,179.933 79.461 C 179.527 79.828,179.064 79.997,178.904 79.837 C 178.668 79.601,180.233 78.041,180.738 78.009 C 180.814 78.004,181.399 78.372,182.038 78.827 M184.809 96.323 C 184.797 98.678,184.004 103.717,183.575 104.168 C 182.526 105.269,184.961 107.687,189.045 109.601 C 193.349 111.618,194.236 112.487,196.389 116.800 C 196.884 117.790,198.049 119.320,198.978 120.200 C 200.225 121.380,201.126 122.864,202.410 125.853 L 204.151 129.906 205.975 130.143 C 206.979 130.273,208.185 130.490,208.656 130.625 C 209.470 130.858,209.520 130.716,209.673 127.735 C 209.824 124.799,209.973 124.358,212.017 120.801 L 214.200 117.002 214.200 112.001 C 214.200 108.127,214.347 106.735,214.852 105.822 C 215.372 104.883,215.417 104.396,215.074 103.422 C 214.648 102.211,214.642 102.209,214.409 103.178 C 214.124 104.367,213.411 104.576,206.282 105.564 L 201.000 106.296 199.200 105.379 C 198.210 104.875,195.964 103.639,194.210 102.631 C 190.408 100.449,190.536 100.466,190.183 102.100 C 190.029 102.815,189.557 104.030,189.133 104.800 C 188.266 106.374,188.333 105.688,189.375 102.305 L 189.959 100.410 188.139 99.158 C 186.997 98.372,186.039 97.290,185.568 96.253 L 184.818 94.600 184.809 96.323 M215.480 100.935 C 215.367 101.230,215.419 102.085,215.596 102.835 C 215.910 104.165,215.919 104.151,215.959 102.300 C 216.000 100.377,215.854 99.960,215.480 100.935 M212.000 111.066 C 208.517 112.594,208.608 112.505,208.478 114.513 C 208.339 116.672,207.600 117.104,207.600 115.026 C 207.600 112.790,208.240 111.612,209.602 111.340 C 210.270 111.206,210.914 110.940,211.032 110.748 C 211.150 110.557,211.732 110.412,212.324 110.426 C 213.362 110.450,213.351 110.473,212.000 111.066 M202.527 113.120 C 203.298 113.972,204.503 117.200,204.051 117.200 C 203.878 117.200,203.310 116.289,202.789 115.177 L 201.841 113.153 199.221 113.426 C 196.383 113.721,196.144 113.226,198.907 112.776 C 201.600 112.337,201.840 112.360,202.527 113.120 M240.920 118.400 C 240.920 119.610,240.995 120.105,241.087 119.500 C 241.178 118.895,241.178 117.905,241.087 117.300 C 240.995 116.695,240.920 117.190,240.920 118.400 M241.720 119.200 C 241.720 120.410,241.795 120.905,241.887 120.300 C 241.978 119.695,241.978 118.705,241.887 118.100 C 241.795 117.495,241.720 117.990,241.720 119.200 M186.114 121.244 C 184.623 121.675,182.807 124.108,182.070 126.662 C 180.876 130.803,174.794 135.080,168.200 136.416 C 162.251 137.620,156.810 139.804,152.681 142.644 C 150.432 144.191,149.001 144.525,150.174 143.228 C 150.976 142.343,146.797 140.823,139.326 139.283 L 135.651 138.525 135.210 141.163 C 134.769 143.793,135.018 147.017,135.999 151.394 C 136.373 153.063,136.165 155.818,135.394 159.415 C 135.039 161.073,136.041 162.199,138.800 163.239 C 147.934 166.684,161.964 165.497,170.420 160.564 C 173.834 158.571,179.948 152.380,183.209 147.613 C 186.355 143.016,186.208 143.348,185.216 143.088 C 184.767 142.971,184.400 142.672,184.400 142.425 C 184.400 141.955,184.669 141.828,186.523 141.420 C 187.396 141.228,187.592 141.006,187.406 140.420 C 187.034 139.246,187.941 139.032,188.460 140.172 L 188.923 141.189 190.362 140.329 C 195.392 137.321,197.118 135.974,196.920 135.214 C 196.733 134.500,196.816 134.475,197.959 134.907 C 199.045 135.317,199.305 135.273,200.018 134.560 C 202.324 132.254,196.119 128.221,193.726 130.470 C 192.304 131.805,192.579 130.469,194.061 128.838 L 195.299 127.477 197.881 128.750 C 201.115 130.345,201.287 129.457,198.197 127.117 C 195.600 125.149,194.693 125.191,191.998 127.402 C 190.790 128.393,189.735 129.005,189.654 128.763 C 189.462 128.187,193.186 124.409,193.985 124.370 C 194.793 124.330,192.032 123.270,191.017 123.230 C 190.586 123.214,189.596 123.823,188.816 124.585 C 186.678 126.672,185.802 125.864,187.803 123.649 C 189.019 122.303,189.560 121.997,190.747 121.986 L 192.200 121.972 191.200 121.400 C 190.071 120.755,188.023 120.692,186.114 121.244 M250.909 128.400 C 250.909 129.390,250.987 129.795,251.082 129.300 C 251.178 128.805,251.178 127.995,251.082 127.500 C 250.987 127.005,250.909 127.410,250.909 128.400 M138.433 133.744 C 138.905 134.150,140.843 134.393,140.610 134.016 C 140.468 133.787,139.883 133.600,139.310 133.600 C 138.736 133.600,138.342 133.665,138.433 133.744 M185.293 153.200 C 185.293 153.970,185.375 154.285,185.476 153.900 C 185.576 153.515,185.576 152.885,185.476 152.500 C 185.375 152.115,185.293 152.430,185.293 153.200 M236.000 152.553 C 236.000 152.883,236.180 153.264,236.400 153.400 C 236.620 153.536,236.800 153.377,236.800 153.047 C 236.800 152.717,236.620 152.336,236.400 152.200 C 236.180 152.064,236.000 152.223,236.000 152.553 M177.186 156.700 L 175.000 159.000 177.062 157.053 C 178.819 155.393,179.152 155.216,179.315 155.853 C 179.448 156.370,179.521 156.261,179.554 155.500 C 179.613 154.084,179.729 154.025,177.186 156.700 M185.751 170.000 C 185.751 172.530,185.816 173.565,185.896 172.300 C 185.975 171.035,185.975 168.965,185.896 167.700 C 185.816 166.435,185.751 167.470,185.751 170.000 M179.734 174.800 C 179.734 176.450,179.805 177.125,179.891 176.300 C 179.978 175.475,179.978 174.125,179.891 173.300 C 179.805 172.475,179.734 173.150,179.734 174.800 M201.067 201.467 C 200.110 202.423,201.973 204.052,203.026 203.179 C 203.837 202.505,203.746 202.195,202.581 201.664 C 201.386 201.120,201.410 201.123,201.067 201.467 M137.157 353.077 C 137.518 354.424,138.148 354.599,144.885 355.223 C 151.794 355.862,162.400 355.110,162.400 353.981 C 162.400 353.807,162.500 353.404,162.623 353.085 C 162.815 352.583,162.561 352.586,160.723 353.108 C 155.440 354.607,138.827 354.061,137.772 352.354 C 137.294 351.582,136.886 352.062,137.157 353.077 M219.827 353.046 C 220.348 355.281,220.609 355.334,230.560 355.202 C 234.111 355.155,235.562 354.981,236.271 354.517 C 237.136 353.950,237.286 353.954,237.965 354.568 C 239.689 356.129,268.338 355.749,270.718 354.134 C 271.777 353.416,271.305 353.390,248.600 352.952 C 235.840 352.706,224.085 352.366,222.479 352.198 L 219.558 351.892 219.827 353.046 " stroke="none" fill="#ab745a" fill-rule="evenodd"></path><path id="path3" d="M236.200 48.000 C 236.064 48.220,235.232 48.400,234.350 48.400 C 232.579 48.400,231.049 49.032,231.410 49.615 C 231.537 49.822,231.360 49.883,231.016 49.751 C 228.727 48.872,227.873 57.932,230.053 59.963 C 230.713 60.578,230.786 60.879,230.434 61.536 C 228.418 65.304,230.470 66.820,237.800 66.973 C 241.201 67.045,245.434 67.400,247.572 67.793 C 249.647 68.174,252.025 68.395,252.856 68.283 L 254.367 68.081 255.009 70.290 C 255.883 73.298,258.918 80.066,260.331 82.160 C 261.278 83.563,261.522 84.416,261.680 86.889 L 261.874 89.906 260.437 89.271 C 256.632 87.587,247.260 88.720,244.388 91.210 C 243.287 92.165,243.612 92.221,245.271 91.363 C 249.215 89.324,254.470 88.962,259.305 90.398 L 262.292 91.284 262.781 93.542 C 263.691 97.743,266.762 103.147,269.959 106.175 C 271.886 107.999,271.463 107.075,268.007 101.913 C 266.251 99.290,264.556 96.276,264.241 95.215 C 263.480 92.649,262.671 86.076,262.865 84.033 C 263.013 82.482,262.676 81.825,262.284 82.900 C 261.976 83.746,257.625 74.393,256.480 70.423 L 255.400 66.675 252.000 66.624 C 250.130 66.596,246.313 66.327,243.518 66.027 L 238.436 65.481 239.218 64.486 C 239.648 63.940,240.000 63.258,240.000 62.971 C 240.000 62.603,240.395 62.514,241.345 62.669 C 243.912 63.085,245.022 61.722,246.010 56.938 C 246.276 55.652,246.697 54.468,246.947 54.306 C 247.221 54.128,247.079 54.010,246.587 54.006 C 245.738 54.000,242.307 53.129,241.100 52.613 C 240.510 52.361,240.400 52.534,240.400 53.708 C 240.400 54.475,240.119 55.774,239.777 56.594 C 239.434 57.415,239.241 58.175,239.349 58.283 C 239.715 58.649,241.560 57.005,242.033 55.891 C 242.633 54.479,242.922 54.315,244.232 54.644 C 245.435 54.946,245.480 57.888,244.318 60.281 C 243.746 61.459,240.323 61.939,239.669 60.933 C 239.181 60.183,237.675 59.600,236.226 59.600 C 234.528 59.600,234.342 58.230,235.375 53.317 C 236.573 47.622,236.282 47.737,245.284 49.400 C 259.566 52.038,262.691 53.981,272.565 66.356 C 273.789 67.890,276.836 70.860,279.337 72.956 C 287.338 79.662,289.209 83.628,290.012 95.586 C 290.402 101.399,290.838 103.713,292.204 107.220 C 293.613 110.836,290.998 113.408,282.454 116.811 C 278.983 118.193,276.581 119.488,273.732 121.511 C 268.379 125.315,264.152 127.190,258.752 128.157 C 257.053 128.462,256.800 127.842,256.800 123.376 C 256.800 115.309,251.673 103.078,244.532 94.113 C 240.578 89.149,239.438 88.669,238.358 91.510 C 238.067 92.275,237.829 92.394,237.100 92.138 C 235.192 91.467,233.027 91.738,232.605 92.700 C 232.388 93.195,231.996 93.600,231.734 93.600 C 231.472 93.600,230.904 94.050,230.471 94.600 C 230.039 95.150,229.319 95.600,228.871 95.600 C 228.424 95.600,227.723 96.026,227.314 96.546 C 226.905 97.066,226.199 97.610,225.746 97.754 C 225.292 97.898,224.344 98.735,223.637 99.614 C 222.422 101.125,222.306 101.179,221.487 100.606 C 220.491 99.909,219.077 99.824,218.005 100.397 C 216.844 101.019,216.623 99.065,217.552 96.400 C 217.974 95.190,218.627 91.680,219.003 88.600 C 219.571 83.945,219.838 82.831,220.585 82.000 C 222.057 80.360,222.085 79.713,220.801 76.938 C 220.140 75.511,219.600 73.939,219.600 73.445 C 219.600 67.882,212.502 59.659,205.389 56.981 C 191.158 51.625,178.010 60.160,177.999 74.764 C 177.998 75.927,177.687 77.109,177.150 77.989 C 176.103 79.707,176.316 80.441,179.532 86.200 C 181.789 90.243,182.302 90.908,182.882 90.550 C 183.558 90.131,183.846 92.346,183.564 95.800 C 183.402 97.780,183.254 99.799,183.235 100.287 C 183.210 100.925,183.022 101.107,182.569 100.933 C 182.166 100.778,181.522 101.145,180.791 101.945 C 180.161 102.635,179.495 103.200,179.312 103.200 C 178.760 103.200,175.116 98.863,171.714 94.158 C 169.955 91.724,166.535 87.318,164.115 84.367 C 161.695 81.415,158.245 76.930,156.449 74.400 C 148.395 63.053,146.077 61.390,144.413 65.766 C 144.219 66.275,143.787 66.796,143.452 66.925 C 141.816 67.553,141.202 71.185,142.727 71.212 C 143.341 71.223,143.339 71.260,142.700 71.632 C 141.731 72.196,141.824 72.895,143.018 74.017 C 143.578 74.543,146.829 79.119,150.244 84.187 C 158.724 96.773,163.732 103.937,165.198 105.579 C 166.966 107.559,166.680 107.988,162.913 109.016 C 153.984 111.452,145.085 117.766,139.571 125.579 C 138.165 127.570,136.769 129.200,136.468 129.200 C 135.490 129.200,133.131 131.903,133.247 132.890 C 133.306 133.390,133.051 134.374,132.680 135.075 C 131.927 136.497,132.110 137.454,133.201 137.800 C 134.352 138.166,134.974 139.108,134.467 139.720 C 133.668 140.682,133.519 143.423,134.059 147.223 C 134.684 151.622,134.675 155.904,134.035 158.272 C 133.431 160.512,134.327 162.842,136.249 164.030 C 140.925 166.920,157.803 167.235,165.185 164.570 C 168.300 163.446,167.791 162.443,168.547 171.200 C 169.704 184.614,169.791 187.671,169.054 189.096 C 168.694 189.791,168.400 190.779,168.400 191.291 C 168.400 191.803,168.118 192.625,167.773 193.117 C 166.483 194.959,167.242 197.600,169.061 197.600 C 169.400 197.600,169.108 198.678,168.185 200.835 C 167.423 202.615,166.800 204.265,166.800 204.501 C 166.800 204.977,164.745 210.408,163.532 213.139 C 163.107 214.096,162.135 217.066,161.373 219.739 C 159.604 225.945,157.650 231.328,154.922 237.510 C 152.468 243.070,152.192 244.373,151.811 252.200 C 151.443 259.730,150.577 268.027,149.827 271.200 C 149.099 274.279,149.046 276.233,149.627 278.543 C 150.039 280.179,150.004 280.295,148.647 281.776 C 145.805 284.879,143.058 291.437,143.922 293.058 C 144.199 293.578,144.097 294.815,143.579 297.200 C 142.820 300.691,141.906 306.180,140.214 317.409 C 139.453 322.457,138.944 324.526,137.818 327.157 C 136.637 329.918,136.450 330.717,136.741 331.771 C 137.118 333.136,136.545 337.817,135.439 342.400 C 134.133 347.814,135.163 354.826,137.379 355.607 C 139.702 356.425,149.628 357.275,153.892 357.020 C 161.951 356.539,164.000 355.795,164.000 353.352 C 164.000 352.420,164.247 351.896,164.834 351.582 C 167.359 350.230,167.354 343.963,164.820 335.648 L 164.042 333.097 165.458 331.248 C 166.807 329.488,166.862 329.291,166.620 327.119 C 166.337 324.589,166.615 323.843,169.790 318.600 C 170.723 317.060,172.335 314.337,173.371 312.549 L 175.256 309.298 176.861 309.658 C 180.650 310.510,180.970 310.139,180.843 305.041 C 180.776 302.320,180.979 299.691,181.436 297.391 C 182.076 294.167,182.080 293.848,181.485 293.413 C 180.587 292.756,181.016 291.346,182.680 289.479 C 184.284 287.679,184.621 286.940,185.200 283.951 C 185.526 282.268,186.452 280.404,188.877 276.551 C 192.336 271.053,195.362 265.034,196.795 260.800 C 197.781 257.885,202.791 237.033,202.796 235.820 C 202.803 234.362,203.482 235.763,205.016 240.400 C 207.525 247.981,210.348 255.579,212.077 259.400 C 212.973 261.380,214.302 264.470,215.031 266.268 C 216.956 271.015,218.469 273.868,220.582 276.736 L 222.451 279.271 222.025 281.256 C 221.791 282.347,221.330 283.762,221.000 284.400 C 220.670 285.038,220.400 285.983,220.400 286.500 C 220.400 287.017,220.237 287.611,220.037 287.820 C 218.503 289.428,217.162 299.235,218.373 299.984 C 218.823 300.261,218.833 300.955,218.430 304.059 C 217.749 309.309,217.188 320.971,216.952 334.800 L 216.750 346.600 217.949 351.154 C 218.608 353.658,219.341 355.901,219.578 356.138 C 220.390 356.950,235.007 357.019,236.230 356.217 C 237.171 355.600,237.309 355.596,237.733 356.170 C 238.261 356.885,265.132 357.319,268.917 356.673 C 270.874 356.339,273.600 354.435,273.600 353.401 C 273.600 353.118,273.843 352.793,274.139 352.679 C 275.155 352.289,276.445 348.822,276.479 346.388 C 276.543 341.896,275.232 340.730,266.730 337.715 C 263.359 336.519,257.866 334.574,254.525 333.392 C 243.483 329.484,243.719 329.728,244.804 323.364 C 245.251 320.744,246.354 315.810,247.256 312.400 C 248.158 308.990,248.981 305.819,249.085 305.352 C 249.212 304.780,249.788 304.350,250.858 304.030 C 252.540 303.526,253.201 302.641,252.453 301.893 C 251.845 301.285,251.915 297.284,252.599 293.600 C 253.115 290.817,253.104 290.557,252.444 290.009 C 251.768 289.447,251.788 289.297,252.848 286.958 C 254.154 284.077,256.171 277.468,256.797 274.019 C 257.806 268.453,255.528 261.204,243.402 231.400 C 240.044 223.147,239.005 219.973,236.808 211.255 C 235.940 207.815,234.778 203.740,234.224 202.200 C 233.083 199.026,232.960 197.782,233.742 197.320 C 235.265 196.420,235.753 190.199,234.539 187.163 C 233.869 185.490,233.941 184.218,235.582 168.800 C 237.110 154.440,240.240 143.523,244.977 136.032 L 246.095 134.265 246.608 135.484 C 247.566 137.763,249.368 137.717,250.815 135.376 C 251.458 134.336,251.872 134.028,252.348 134.236 C 255.106 135.444,256.508 134.578,257.023 131.348 C 257.276 129.762,257.354 129.688,258.993 129.463 C 263.296 128.873,268.353 126.804,272.644 123.877 C 278.414 119.942,279.492 119.315,281.800 118.550 C 291.687 115.275,295.492 111.125,293.212 106.103 C 292.118 103.692,291.630 100.682,291.201 93.698 C 290.541 82.958,288.110 78.168,279.972 71.577 C 277.799 69.818,274.780 66.891,273.262 65.074 C 269.410 60.463,263.302 54.339,261.181 52.963 C 260.201 52.327,259.309 51.686,259.197 51.537 C 258.081 50.050,236.942 46.799,236.200 48.000 M234.748 52.300 C 234.340 54.005,234.000 56.480,233.992 57.800 L 233.978 60.200 232.568 58.683 C 231.717 57.767,231.232 56.894,231.346 56.483 C 231.451 56.107,231.655 54.583,231.800 53.096 C 232.093 50.098,232.686 49.200,234.374 49.200 L 235.490 49.200 234.748 52.300 M231.036 52.100 C 230.374 56.387,230.373 57.188,231.022 58.479 C 231.645 59.717,231.645 59.760,231.013 59.155 C 229.846 58.039,229.702 50.800,230.847 50.800 C 231.061 50.800,231.146 51.385,231.036 52.100 M202.407 57.629 C 210.052 59.747,217.186 66.819,217.758 72.848 C 217.861 73.923,218.477 75.657,219.232 76.995 L 220.530 79.296 219.812 80.629 C 219.418 81.362,218.030 82.736,216.728 83.681 C 214.211 85.510,214.443 86.380,217.023 84.786 L 218.437 83.912 218.227 84.856 C 218.110 85.375,217.818 87.330,217.577 89.200 C 217.041 93.353,215.551 98.002,213.844 100.845 C 212.412 103.230,212.710 103.111,205.458 104.184 L 201.116 104.827 198.458 103.346 C 196.996 102.532,194.180 100.982,192.200 99.903 C 190.220 98.824,188.206 97.549,187.726 97.070 C 186.545 95.895,183.936 90.088,184.504 89.899 C 184.745 89.818,184.805 89.531,184.637 89.260 C 184.470 88.989,184.010 88.870,183.615 88.995 C 182.912 89.218,178.997 83.044,178.212 80.473 C 177.728 78.887,179.708 76.309,181.025 76.810 C 182.277 77.285,182.800 77.304,182.800 76.874 C 182.800 76.402,180.014 75.144,179.573 75.417 C 178.625 76.003,180.185 68.374,181.567 65.665 C 185.382 58.186,193.342 55.117,202.407 57.629 M239.043 61.831 C 239.629 64.163,234.793 66.870,232.414 65.541 C 229.939 64.159,231.024 60.804,233.949 60.794 C 234.967 60.791,236.053 60.627,236.363 60.431 C 237.170 59.921,238.774 60.758,239.043 61.831 M236.000 62.600 C 236.000 64.485,236.803 65.037,237.920 63.920 C 238.995 62.845,238.208 60.800,236.720 60.800 C 236.133 60.800,236.000 61.133,236.000 62.600 M237.600 62.176 C 237.600 62.713,237.420 63.264,237.200 63.400 C 236.967 63.544,236.800 63.137,236.800 62.424 C 236.800 61.751,236.980 61.200,237.200 61.200 C 237.420 61.200,237.600 61.639,237.600 62.176 M193.413 64.421 C 193.653 64.810,192.448 65.781,192.126 65.459 C 191.986 65.319,191.671 65.609,191.426 66.102 C 191.181 66.596,190.589 67.056,190.112 67.125 C 189.580 67.202,189.324 67.457,189.449 67.784 C 189.562 68.079,189.462 68.438,189.227 68.583 C 188.992 68.728,188.800 69.000,188.800 69.186 C 188.800 69.791,190.670 68.661,191.040 67.832 C 191.238 67.389,191.850 66.903,192.400 66.753 C 192.950 66.603,193.243 66.462,193.051 66.440 C 192.859 66.418,192.911 66.149,193.166 65.841 C 193.433 65.519,194.004 65.375,194.515 65.500 C 195.002 65.620,195.267 65.573,195.103 65.396 C 194.940 65.219,194.983 64.862,195.197 64.603 C 195.481 64.261,195.267 64.133,194.411 64.133 C 193.764 64.133,193.315 64.263,193.413 64.421 M149.063 66.900 C 149.923 67.835,151.235 69.500,151.977 70.600 C 154.709 74.651,157.516 78.365,163.010 85.200 C 168.256 91.727,172.251 97.160,171.936 97.339 C 171.861 97.381,171.221 97.620,170.514 97.868 L 169.227 98.320 162.274 89.260 C 158.450 84.277,154.449 78.940,153.382 77.400 C 152.315 75.860,150.117 72.733,148.497 70.452 C 146.877 68.171,145.647 66.056,145.763 65.752 C 146.156 64.727,147.490 65.191,149.063 66.900 M195.682 66.409 C 193.552 67.704,189.490 74.851,190.216 76.025 C 190.665 76.752,191.864 76.386,193.025 75.166 C 193.671 74.488,195.067 73.294,196.126 72.513 L 198.052 71.094 199.400 72.400 C 201.008 73.958,201.736 73.807,202.601 71.736 C 203.385 69.859,203.233 69.000,202.118 69.000 C 201.641 69.000,200.654 68.437,199.925 67.748 C 197.797 65.737,197.132 65.527,195.682 66.409 M148.065 71.600 C 152.924 78.736,154.274 80.607,161.294 89.925 L 168.320 99.249 167.660 100.821 C 167.297 101.685,166.879 102.394,166.731 102.396 C 166.194 102.404,162.713 98.128,160.879 95.207 C 155.976 87.399,144.657 70.718,143.971 70.289 C 143.547 70.024,143.200 69.637,143.200 69.430 C 143.200 68.818,144.925 67.161,145.214 67.495 C 145.359 67.663,146.642 69.510,148.065 71.600 M209.000 69.790 C 208.340 70.344,207.316 70.797,206.724 70.798 C 205.277 70.801,205.062 71.295,205.769 72.988 C 206.632 75.054,207.398 75.159,209.145 73.454 C 210.423 72.206,210.896 72.000,212.484 72.000 C 215.908 72.000,216.717 70.885,214.100 69.773 C 211.508 68.672,210.330 68.676,209.000 69.790 M150.875 82.000 C 154.502 87.390,157.691 92.250,157.962 92.800 L 158.454 93.800 157.624 92.800 C 156.415 91.342,148.032 79.025,146.257 76.098 C 145.422 74.722,144.388 73.408,143.959 73.178 C 143.248 72.798,143.265 71.795,143.977 72.079 C 144.144 72.145,147.249 76.610,150.875 82.000 M212.037 74.518 C 209.511 75.209,208.597 76.561,209.183 78.738 C 209.845 81.196,213.196 80.894,215.743 78.148 C 218.262 75.431,216.175 73.386,212.037 74.518 M215.702 75.700 C 216.019 76.545,215.437 77.588,214.190 78.410 C 212.776 79.342,212.106 79.436,212.796 78.604 C 213.110 78.227,213.194 77.495,213.027 76.604 C 212.754 75.146,215.186 74.324,215.702 75.700 M211.920 76.480 C 212.552 77.112,212.530 77.864,211.873 78.117 C 211.533 78.247,211.355 78.013,211.373 77.460 C 211.391 76.880,211.174 76.618,210.704 76.655 C 210.322 76.685,210.107 76.550,210.228 76.355 C 210.537 75.854,211.354 75.914,211.920 76.480 M194.611 77.118 C 191.613 78.147,191.360 79.839,193.950 81.533 C 194.959 82.193,195.928 82.644,196.104 82.536 C 196.279 82.428,197.501 82.295,198.820 82.241 C 202.712 82.082,205.357 78.674,202.953 76.916 C 201.943 76.177,197.003 76.297,194.611 77.118 M207.421 77.800 C 207.577 78.680,208.221 80.829,208.852 82.577 C 209.484 84.324,210.000 86.055,210.000 86.423 C 210.000 87.214,206.569 90.000,205.594 90.000 C 204.441 90.000,201.442 87.598,201.955 87.085 C 202.534 86.506,202.527 85.600,201.944 85.600 C 200.467 85.600,200.067 87.788,201.300 89.123 L 202.200 90.098 200.400 89.203 C 198.184 88.100,197.211 87.270,196.764 86.100 C 196.305 84.901,195.293 84.958,194.720 86.216 C 194.324 87.085,194.079 87.195,193.028 86.975 C 190.505 86.447,189.892 85.896,189.048 83.400 C 188.121 80.654,187.627 81.402,188.424 84.348 C 189.089 86.809,189.258 86.983,191.757 87.769 C 193.768 88.401,193.920 88.541,194.145 89.947 C 194.778 93.902,198.080 95.442,203.669 94.387 C 206.159 93.917,206.578 93.932,207.590 94.530 C 211.950 97.106,217.964 92.269,215.936 87.819 C 215.407 86.659,214.575 86.518,213.580 87.419 C 212.953 87.986,212.870 87.944,212.583 86.919 L 212.270 85.800 212.032 86.995 C 211.881 87.751,211.506 88.246,211.010 88.341 C 210.331 88.472,210.297 88.406,210.758 87.851 C 211.436 87.033,211.174 85.659,209.425 80.850 C 207.884 76.614,206.963 75.212,207.421 77.800 M201.500 77.452 C 203.148 77.894,202.716 79.787,200.792 80.557 C 198.155 81.611,197.707 81.480,198.441 79.869 C 198.765 79.158,198.761 78.675,198.427 78.051 C 197.937 77.135,199.316 76.867,201.500 77.452 M197.521 78.951 C 197.366 80.036,195.325 80.392,194.945 79.400 C 194.807 79.040,194.881 78.559,195.110 78.330 C 195.397 78.043,195.506 78.139,195.463 78.642 C 195.426 79.065,195.716 79.434,196.153 79.524 C 196.784 79.654,196.864 79.511,196.648 78.650 C 196.441 77.823,196.513 77.669,197.016 77.862 C 197.376 78.000,197.591 78.463,197.521 78.951 M194.230 79.392 C 194.253 80.501,194.152 80.693,193.730 80.342 C 193.168 79.876,193.021 78.713,193.467 78.267 C 194.000 77.734,194.201 78.030,194.230 79.392 M179.362 79.300 C 178.601 80.199,178.601 80.199,179.431 79.500 C 181.119 78.080,183.012 79.607,181.819 81.427 C 181.037 82.620,181.436 84.165,182.857 85.452 C 183.724 86.236,183.452 85.032,182.371 83.302 C 182.000 82.708,182.034 82.294,182.533 81.329 C 183.658 79.154,180.951 77.423,179.362 79.300 M244.049 95.200 C 252.026 105.174,256.426 117.541,255.905 128.526 C 255.685 133.182,255.142 134.178,253.438 133.062 C 251.903 132.056,251.349 132.240,250.000 134.200 C 247.962 137.162,247.876 137.003,247.173 129.000 C 246.360 119.740,244.615 114.569,237.970 101.725 C 233.771 93.606,233.391 92.526,234.900 92.974 C 237.838 93.848,238.751 93.749,239.478 92.483 C 240.353 90.959,240.934 91.304,244.049 95.200 M187.200 98.313 C 188.148 99.057,191.371 100.916,197.917 104.494 C 201.190 106.283,200.946 106.274,209.544 104.921 C 213.495 104.299,213.706 104.216,214.083 103.135 C 214.300 102.511,214.618 102.088,214.790 102.194 C 214.962 102.300,215.236 101.805,215.400 101.094 L 215.697 99.800 216.068 101.476 C 216.390 102.935,216.297 103.428,215.358 105.276 C 214.243 107.468,214.157 108.272,214.451 113.800 C 214.592 116.446,214.513 116.754,213.026 119.400 C 210.123 124.563,209.880 125.202,209.690 128.155 L 209.506 131.024 206.583 130.458 C 203.969 129.952,203.632 129.782,203.400 128.846 C 202.770 126.313,200.062 121.308,198.712 120.182 C 197.933 119.532,196.745 117.902,196.072 116.560 C 194.183 112.792,192.994 111.638,189.206 109.894 C 184.375 107.670,182.780 105.957,183.580 103.852 C 183.788 103.306,184.175 100.927,184.441 98.565 L 184.924 94.271 185.562 95.900 C 185.913 96.796,186.650 97.882,187.200 98.313 M233.042 95.100 C 238.026 100.535,245.481 119.641,246.227 128.891 L 246.509 132.383 244.995 134.058 C 241.993 137.381,237.784 148.069,235.959 157.000 C 235.375 159.862,232.800 182.096,232.800 184.283 C 232.800 184.373,232.620 184.336,232.400 184.200 C 231.790 183.823,231.909 184.416,233.000 187.200 C 234.432 190.853,233.928 192.090,232.389 188.700 C 231.723 187.232,231.616 187.142,231.609 188.040 C 231.604 188.612,232.137 189.872,232.793 190.840 C 235.261 194.483,234.326 196.494,230.582 195.596 C 227.512 194.859,227.328 193.206,229.173 182.926 C 230.095 177.789,231.600 166.616,231.600 164.910 C 231.600 163.912,232.131 161.544,232.779 159.647 C 235.375 152.058,235.507 144.017,233.051 143.075 C 232.650 142.921,232.392 141.896,232.206 139.727 C 230.640 121.377,227.935 109.519,224.016 103.823 L 222.777 102.023 223.580 101.220 C 224.517 100.283,225.295 100.475,226.208 101.868 C 226.569 102.419,226.966 102.767,227.090 102.643 C 227.215 102.518,226.851 101.712,226.282 100.852 C 225.261 99.309,225.250 98.800,226.236 98.800 C 227.147 98.800,229.301 100.938,230.048 102.583 C 230.452 103.473,230.786 103.969,230.791 103.687 C 230.808 102.709,229.552 100.194,228.497 99.093 L 227.437 97.986 228.271 97.151 C 229.791 95.631,232.445 98.089,234.638 103.047 C 235.723 105.501,236.049 105.785,235.619 103.900 C 235.152 101.857,232.932 97.762,231.815 96.883 C 230.684 95.993,230.575 95.585,231.280 94.880 C 231.930 94.230,232.285 94.275,233.042 95.100 M174.181 100.037 C 174.956 100.718,176.529 102.473,177.676 103.937 C 178.823 105.402,181.120 108.286,182.781 110.348 C 184.441 112.409,186.112 114.499,186.493 114.993 L 187.187 115.890 185.211 116.124 C 181.378 116.578,180.764 117.428,180.433 122.744 L 180.200 126.488 176.737 121.344 C 167.644 107.838,167.073 106.464,168.639 101.866 C 169.744 98.623,171.798 97.945,174.181 100.037 M166.708 104.626 C 166.303 105.030,165.775 104.542,164.194 102.299 L 162.715 100.200 164.838 102.286 C 166.006 103.433,166.847 104.486,166.708 104.626 M206.840 101.476 C 206.818 102.178,206.980 102.864,207.200 103.000 C 207.660 103.284,207.660 102.636,207.200 101.200 C 206.894 100.245,206.878 100.257,206.840 101.476 M189.887 101.073 C 189.560 101.627,189.124 104.000,189.349 104.000 C 189.613 104.000,190.435 101.102,190.229 100.896 C 190.147 100.814,189.993 100.894,189.887 101.073 M218.400 105.138 C 218.400 106.003,217.837 107.514,216.900 109.162 L 215.400 111.800 215.275 109.833 C 215.184 108.385,215.421 107.264,216.175 105.583 C 216.739 104.327,217.206 103.052,217.213 102.750 C 217.242 101.502,218.400 103.831,218.400 105.138 M188.310 110.211 C 190.449 111.225,192.517 112.447,192.905 112.927 C 194.062 114.361,196.102 118.031,195.871 118.263 C 195.315 118.818,191.285 115.768,189.748 113.629 C 188.650 112.101,187.376 110.921,185.948 110.109 C 183.034 108.452,179.146 104.000,180.613 104.000 C 180.949 104.000,181.333 103.719,181.464 103.376 C 181.625 102.959,182.153 103.681,183.061 105.560 L 184.419 108.367 188.310 110.211 M221.628 109.800 C 223.962 115.922,228.836 140.897,227.883 141.851 C 227.651 142.082,217.772 139.771,215.207 138.885 L 213.013 138.128 212.382 135.348 C 212.035 133.819,211.629 132.370,211.480 132.129 C 211.331 131.888,211.487 131.460,211.827 131.177 C 213.381 129.888,214.533 127.197,213.977 126.157 C 213.525 125.313,213.543 125.005,214.097 124.067 C 214.537 123.322,214.677 122.452,214.532 121.369 C 214.397 120.359,214.554 119.207,214.959 118.237 C 215.311 117.393,215.600 115.978,215.600 115.092 C 215.600 113.939,216.111 112.543,217.400 110.179 C 218.390 108.363,219.200 106.374,219.200 105.758 C 219.200 104.001,219.796 104.993,221.628 109.800 M171.342 115.418 C 174.759 121.059,176.806 126.633,176.797 130.272 C 176.793 131.916,172.593 134.133,167.545 135.156 C 165.485 135.574,162.823 136.289,161.630 136.746 C 159.511 137.557,159.446 137.559,158.932 136.824 C 157.438 134.692,149.174 131.379,142.318 130.164 L 138.436 129.476 140.111 127.038 C 145.312 119.468,154.609 112.643,163.053 110.196 C 164.977 109.638,166.641 109.092,166.752 108.982 C 167.110 108.623,167.884 109.709,171.342 115.418 M189.000 114.012 C 190.247 115.920,191.196 116.817,193.300 118.076 C 194.785 118.964,196.000 119.719,196.000 119.753 C 196.000 119.787,195.055 119.785,193.900 119.748 C 191.450 119.669,190.266 118.736,187.110 114.398 C 186.070 112.969,184.828 111.288,184.349 110.663 L 183.479 109.525 185.439 110.544 C 186.894 111.300,187.813 112.195,189.000 114.012 M208.420 112.176 C 208.157 112.493,208.018 113.258,208.111 113.876 C 208.275 114.968,208.282 114.964,208.340 113.720 C 208.375 112.972,208.691 112.270,209.100 112.032 C 209.485 111.808,209.597 111.619,209.349 111.612 C 209.101 111.605,208.683 111.859,208.420 112.176 M200.341 113.160 C 201.815 113.363,202.196 113.615,202.824 114.800 C 203.714 116.479,203.829 116.122,203.020 114.187 C 202.467 112.862,202.355 112.803,200.520 112.860 L 198.600 112.920 200.341 113.160 M241.065 121.202 C 240.923 123.843,240.723 127.038,240.620 128.302 C 240.443 130.486,240.451 130.511,240.779 128.800 C 241.189 126.658,241.802 116.400,241.520 116.400 C 241.411 116.400,241.207 118.561,241.065 121.202 M188.349 118.146 L 189.238 119.092 187.142 119.370 C 185.387 119.603,184.767 119.927,183.323 121.371 L 181.600 123.095 181.600 121.935 C 181.600 118.063,185.968 115.611,188.349 118.146 M191.600 121.434 C 192.578 121.956,192.564 121.968,190.967 121.984 C 189.547 121.998,189.163 122.212,188.027 123.627 C 186.393 125.660,186.708 126.114,188.600 124.453 C 190.154 123.090,190.908 122.960,193.239 123.659 L 194.771 124.118 193.057 125.205 C 191.388 126.263,189.416 128.350,189.760 128.694 C 189.854 128.788,190.944 128.040,192.181 127.032 C 193.419 126.025,194.709 125.200,195.048 125.200 C 196.212 125.200,200.027 128.072,200.563 129.352 C 201.078 130.582,201.021 131.391,200.478 130.541 C 200.119 129.978,196.204 128.000,195.449 128.000 C 194.827 128.000,192.639 130.372,192.962 130.696 C 193.070 130.803,193.631 130.519,194.209 130.064 L 195.261 129.237 197.480 130.218 C 198.701 130.758,199.754 131.200,199.820 131.200 C 199.887 131.200,200.204 131.726,200.525 132.369 C 201.295 133.913,199.502 136.004,198.067 135.236 C 196.994 134.662,196.521 134.681,197.114 135.274 C 197.637 135.797,195.801 137.281,191.479 139.831 C 188.735 141.449,188.583 141.471,188.196 140.300 C 187.899 139.401,187.898 139.401,187.709 140.400 C 187.489 141.562,186.955 141.985,185.700 141.994 C 184.584 142.001,184.520 142.657,185.601 143.000 C 186.337 143.234,186.218 143.523,184.150 146.527 C 174.069 161.168,165.721 165.628,149.400 165.092 C 138.068 164.721,134.735 162.948,135.531 157.719 C 136.151 153.643,136.127 152.400,135.360 148.800 C 134.783 146.092,134.787 139.079,135.367 138.500 C 135.883 137.984,149.673 141.562,150.597 142.451 C 150.857 142.702,150.792 142.958,150.408 143.195 C 150.086 143.394,149.924 143.657,150.047 143.780 C 150.170 143.903,151.424 143.255,152.835 142.339 C 157.507 139.308,162.612 137.267,168.151 136.216 C 174.816 134.953,180.514 130.915,181.822 126.529 C 183.306 121.552,187.616 119.306,191.600 121.434 M213.262 123.781 C 212.619 124.980,212.542 125.475,212.885 126.227 C 213.247 127.022,213.118 127.470,212.062 129.085 L 210.809 131.000 210.805 128.251 C 210.799 125.064,213.028 119.947,213.733 121.527 C 213.959 122.035,213.808 122.762,213.262 123.781 M197.001 122.455 C 198.610 123.868,199.368 125.049,198.864 125.360 C 198.679 125.475,197.528 124.586,196.307 123.384 C 193.834 120.950,194.410 120.179,197.001 122.455 M250.493 125.600 C 250.493 126.370,250.575 126.685,250.676 126.300 C 250.776 125.915,250.776 125.285,250.676 124.900 C 250.575 124.515,250.493 124.830,250.493 125.600 M143.800 131.385 C 149.672 132.829,154.130 134.686,157.138 136.939 L 158.475 137.941 157.138 138.627 C 156.402 139.004,155.049 139.826,154.131 140.454 L 152.461 141.596 148.857 140.419 C 146.874 139.771,143.035 138.776,140.326 138.208 C 133.169 136.707,133.186 136.718,134.830 134.968 C 135.544 134.208,135.588 133.969,135.144 133.259 C 133.510 130.642,137.376 129.805,143.800 131.385 M244.535 131.724 C 243.410 133.419,242.700 134.834,242.884 135.017 C 242.966 135.099,243.628 134.172,244.356 132.956 C 245.785 130.565,245.920 129.638,244.535 131.724 M209.047 132.394 C 210.460 133.007,210.733 133.327,210.971 134.654 C 211.864 139.624,212.160 139.813,222.800 142.216 C 229.063 143.631,228.704 143.439,227.485 144.712 C 225.124 147.178,220.494 158.919,219.697 164.463 L 219.392 166.579 216.358 163.590 C 207.358 154.723,204.481 151.403,203.816 149.113 C 203.026 146.398,202.434 145.866,199.493 145.235 C 195.883 144.460,189.867 141.200,192.047 141.200 C 192.293 141.200,193.778 140.235,195.347 139.056 C 196.916 137.877,198.614 136.782,199.119 136.623 C 199.625 136.464,200.955 135.167,202.076 133.741 C 204.356 130.840,205.123 130.692,209.047 132.394 M241.429 133.429 C 241.281 134.015,241.238 134.572,241.332 134.666 C 241.427 134.760,241.624 134.358,241.771 133.771 C 241.919 133.185,241.962 132.628,241.868 132.534 C 241.773 132.440,241.576 132.842,241.429 133.429 M239.243 139.462 C 237.989 143.682,236.740 149.195,236.878 149.908 C 236.946 150.261,237.796 147.546,238.768 143.875 C 240.497 137.343,240.852 134.048,239.243 139.462 M195.901 145.391 C 197.168 145.906,198.872 146.452,199.688 146.605 C 201.475 146.941,201.697 147.195,202.594 149.944 C 203.352 152.267,204.795 153.934,215.768 165.155 C 222.061 171.591,222.833 172.063,225.168 170.908 L 226.729 170.135 226.892 171.247 C 226.982 171.858,226.937 172.284,226.792 172.195 C 226.647 172.105,226.036 174.950,225.435 178.516 C 223.884 187.717,223.877 187.734,219.611 192.888 C 218.955 193.681,218.141 193.822,217.926 193.179 C 217.849 192.948,217.260 193.590,216.617 194.607 C 214.227 198.389,212.326 199.048,206.822 198.004 C 205.072 197.672,204.630 197.713,204.087 198.256 C 202.289 200.054,189.388 196.842,188.047 194.263 C 185.909 190.153,185.602 187.945,185.564 176.430 C 185.545 170.363,185.400 161.260,185.242 156.200 L 184.956 147.000 186.585 144.816 C 188.642 142.060,189.631 141.780,191.899 143.309 C 192.833 143.939,194.634 144.876,195.901 145.391 M232.535 144.592 C 235.521 147.578,231.022 164.016,225.968 168.581 C 221.108 172.972,219.724 167.324,223.180 157.200 C 226.719 146.829,230.149 142.206,232.535 144.592 M179.950 174.109 L 180.000 188.418 178.861 190.929 L 177.723 193.440 174.761 194.486 C 173.133 195.061,171.216 195.766,170.501 196.053 C 166.933 197.486,167.612 193.932,171.385 191.427 C 172.603 190.619,173.600 189.877,173.600 189.779 C 173.600 189.306,172.366 189.699,171.056 190.588 C 169.250 191.813,169.085 191.076,170.610 188.600 C 171.565 187.050,171.956 185.333,171.256 185.765 C 171.067 185.882,170.787 183.778,170.633 181.089 C 170.480 178.400,170.095 173.590,169.778 170.400 C 168.968 162.252,168.879 162.799,171.246 161.400 C 172.363 160.740,174.654 158.917,176.338 157.350 L 179.400 154.499 179.650 157.150 C 179.788 158.607,179.923 166.239,179.950 174.109 M185.639 190.300 C 185.870 190.905,186.149 191.850,186.259 192.400 L 186.460 193.400 182.930 193.259 C 179.068 193.104,178.898 193.057,179.488 192.310 C 179.709 192.029,180.006 191.314,180.147 190.721 C 180.380 189.745,180.606 189.628,182.502 189.495 C 183.656 189.414,184.739 189.315,184.910 189.274 C 185.080 189.233,185.408 189.695,185.639 190.300 M225.900 190.395 C 227.167 190.400,227.200 190.445,227.200 192.141 L 227.200 193.883 225.100 193.327 C 223.945 193.021,222.390 192.880,221.644 193.014 L 220.287 193.257 221.602 191.597 C 222.612 190.322,223.112 189.990,223.758 190.163 C 224.221 190.287,225.185 190.392,225.900 190.395 M226.819 195.393 C 228.678 196.159,230.425 196.789,230.700 196.793 C 232.320 196.816,231.137 198.800,229.500 198.806 C 227.096 198.814,223.242 199.792,220.231 201.157 C 217.453 202.416,211.645 204.186,208.900 204.609 L 207.200 204.870 207.200 202.203 L 207.200 199.536 208.416 199.804 C 211.286 200.434,213.606 199.659,216.186 197.209 C 220.208 193.389,221.443 193.178,226.819 195.393 M186.645 195.324 C 187.550 195.806,189.170 196.672,190.245 197.248 C 192.288 198.344,196.699 199.600,198.502 199.600 C 199.628 199.600,200.275 200.183,199.607 200.596 C 198.517 201.269,199.293 203.821,200.829 204.615 C 203.705 206.102,206.923 202.683,204.720 200.480 C 204.347 200.107,204.403 200.000,204.974 200.000 C 205.672 200.000,205.697 200.457,205.485 209.100 C 205.200 220.707,205.223 220.625,202.214 220.518 C 199.407 220.419,199.435 220.443,199.988 218.538 C 200.598 216.439,200.950 208.562,200.521 206.618 L 200.172 205.036 196.986 204.562 C 195.234 204.302,192.049 203.625,189.908 203.058 C 182.573 201.115,176.832 200.766,172.200 201.980 C 168.765 202.881,168.886 203.021,170.201 199.667 L 171.291 196.889 174.146 196.062 C 179.334 194.559,179.779 194.472,182.400 194.460 C 184.326 194.450,185.426 194.674,186.645 195.324 M233.089 203.900 C 233.782 206.045,234.814 209.780,235.383 212.200 C 236.972 218.962,238.602 223.940,241.801 231.800 C 257.224 269.689,257.520 271.420,251.173 286.542 L 249.904 289.565 248.052 289.883 C 240.245 291.220,222.304 289.757,223.039 287.843 C 223.147 287.560,222.968 287.106,222.641 286.834 C 222.175 286.447,222.139 286.133,222.475 285.394 C 222.850 284.572,222.981 284.524,223.482 285.024 C 223.798 285.341,224.629 285.593,225.329 285.584 L 226.600 285.569 225.300 285.004 C 223.674 284.297,223.600 283.162,225.000 280.400 C 225.550 279.315,226.000 278.331,226.000 278.213 C 226.000 277.658,225.322 278.104,224.762 279.028 C 224.144 280.046,224.133 280.028,223.589 277.128 C 223.104 274.547,223.013 274.360,222.820 275.550 L 222.600 276.900 221.352 275.150 C 219.835 273.025,217.667 268.758,215.379 263.400 C 214.440 261.200,213.051 257.960,212.292 256.200 C 211.533 254.440,209.452 248.813,207.667 243.695 C 205.883 238.577,204.230 234.030,203.995 233.591 C 203.705 233.049,203.686 231.926,203.937 230.096 C 204.387 226.815,203.893 225.374,203.225 228.017 C 201.875 233.360,201.173 236.268,200.188 240.600 C 195.214 262.470,194.400 264.777,188.093 274.894 C 185.375 279.252,184.557 280.296,184.134 279.945 C 183.698 279.584,183.598 279.972,183.591 282.051 C 183.580 285.312,182.692 287.238,180.049 289.739 C 178.922 290.805,178.000 292.020,178.000 292.439 C 178.000 293.355,177.829 293.361,173.491 292.605 C 162.758 290.733,152.382 285.710,152.096 282.248 C 152.049 281.689,151.653 279.936,151.214 278.353 C 150.420 275.489,150.420 275.457,151.198 271.638 C 152.254 266.451,152.701 262.386,153.196 253.462 C 153.703 244.312,153.859 243.576,156.605 237.371 C 157.802 234.666,159.587 229.965,160.571 226.926 C 164.258 215.543,165.153 212.893,166.698 208.800 L 168.283 204.600 171.041 203.657 C 175.863 202.010,182.404 202.359,190.600 204.700 C 192.580 205.265,195.280 205.834,196.600 205.964 L 199.000 206.200 199.112 211.027 C 199.202 214.938,199.073 216.336,198.432 218.397 C 197.485 221.440,197.477 221.421,200.023 221.968 C 203.952 222.810,205.482 222.585,205.933 221.100 C 206.711 218.542,206.811 217.544,206.840 212.111 C 206.871 206.208,206.938 206.017,208.974 206.006 C 210.709 205.997,215.597 204.554,220.702 202.544 C 224.739 200.954,227.825 200.192,230.815 200.049 C 231.756 200.004,231.922 200.285,233.089 203.900 M203.534 201.946 C 203.710 203.194,203.088 203.759,201.873 203.454 C 199.868 202.951,200.309 200.641,202.366 200.880 C 203.104 200.966,203.438 201.270,203.534 201.946 M205.014 233.200 C 205.173 233.750,205.615 234.830,205.996 235.600 C 206.377 236.370,207.276 238.800,207.993 241.000 C 209.480 245.562,211.615 250.919,211.851 250.682 C 212.469 250.064,207.092 235.430,205.395 233.114 L 204.726 232.200 205.014 233.200 M152.613 285.113 C 154.400 286.853,156.405 288.324,158.200 289.213 C 159.740 289.976,161.062 290.632,161.137 290.670 C 161.212 290.709,160.463 292.239,159.472 294.070 C 158.481 295.902,157.444 298.210,157.168 299.200 C 156.429 301.844,156.295 301.874,153.379 300.046 C 144.430 294.435,143.610 291.865,148.392 284.413 C 149.942 281.997,149.304 281.891,152.613 285.113 M225.010 290.437 C 228.502 291.665,237.836 292.186,245.101 291.561 C 251.802 290.983,251.392 290.773,250.794 294.476 C 250.533 296.094,250.383 298.540,250.460 299.911 C 250.622 302.789,250.676 302.748,245.418 303.639 C 236.617 305.131,219.189 300.879,219.207 297.245 C 219.227 293.129,220.919 288.022,221.953 288.957 C 222.356 289.322,223.732 289.988,225.010 290.437 M164.791 291.874 L 166.689 292.548 165.553 294.974 C 161.392 303.868,162.129 306.060,169.873 307.818 C 174.768 308.930,174.611 308.723,172.672 311.499 C 171.941 312.545,170.104 315.498,168.588 318.062 C 166.307 321.923,165.755 322.618,165.379 322.104 C 165.032 321.629,164.969 322.243,165.113 324.716 C 165.216 326.493,165.168 328.455,165.007 329.074 L 164.714 330.200 164.288 329.200 L 163.861 328.200 163.697 329.200 C 163.607 329.750,162.997 330.761,162.340 331.446 C 161.250 332.585,161.213 332.710,161.911 332.893 C 163.074 333.197,165.162 341.607,165.186 346.078 C 165.210 350.663,163.368 351.659,153.400 352.455 C 145.200 353.110,139.809 352.334,137.175 350.118 C 135.719 348.892,135.728 347.260,137.228 341.000 C 137.649 339.240,137.996 337.113,137.997 336.273 C 138.000 334.893,138.083 334.772,138.861 335.019 C 139.585 335.249,139.673 335.174,139.418 334.546 C 137.861 330.710,137.861 330.748,139.413 327.360 C 140.229 325.579,140.936 323.327,141.033 322.200 C 141.284 319.295,141.874 315.371,143.635 304.883 C 144.496 299.759,145.200 295.445,145.200 295.298 C 145.200 295.151,146.055 295.854,147.100 296.862 C 150.166 299.818,155.960 303.454,156.980 303.063 C 157.259 302.956,157.699 301.998,157.957 300.934 C 158.505 298.678,162.027 291.200,162.542 291.200 C 162.735 291.200,163.747 291.503,164.791 291.874 M171.800 293.751 C 173.340 294.065,175.911 294.449,177.514 294.603 C 179.965 294.839,180.394 294.988,180.220 295.542 C 179.592 297.540,179.200 300.966,179.200 304.455 C 179.200 306.625,179.065 308.399,178.900 308.397 C 177.781 308.386,166.202 305.518,165.214 305.007 C 164.179 304.472,164.028 304.208,164.230 303.287 C 165.486 297.583,167.445 292.699,168.363 292.983 C 168.713 293.091,170.260 293.437,171.800 293.751 M223.370 302.076 C 229.883 304.635,237.629 305.854,243.600 305.260 C 248.244 304.799,247.923 304.075,246.079 310.854 C 244.641 316.139,243.674 320.673,242.891 325.800 L 242.585 327.800 240.193 328.033 L 237.800 328.266 240.257 328.333 C 241.858 328.377,242.784 328.582,242.915 328.922 C 243.070 329.327,242.588 329.407,240.782 329.276 C 239.131 329.157,237.611 329.362,235.582 329.978 C 231.821 331.120,232.164 331.338,236.202 330.372 C 240.749 329.283,241.848 329.370,245.040 331.070 C 246.558 331.878,250.410 333.485,253.600 334.641 C 276.140 342.809,274.995 342.151,274.733 346.785 C 274.639 348.439,274.314 349.872,273.882 350.532 L 273.182 351.600 261.691 351.575 C 246.323 351.541,220.759 350.960,219.957 350.626 C 218.220 349.903,217.799 339.305,218.742 320.000 C 219.427 305.950,219.989 300.704,220.772 301.036 C 221.117 301.182,222.287 301.651,223.370 302.076 M137.875 352.197 C 140.998 354.385,155.365 354.599,162.100 352.558 C 162.607 352.405,162.800 352.571,162.800 353.159 C 162.800 356.673,137.979 356.501,136.898 352.980 C 136.430 351.454,136.609 351.311,137.875 352.197 M236.000 352.387 C 244.030 352.595,255.430 352.773,261.333 352.783 C 272.810 352.801,273.462 352.935,270.178 354.600 C 267.711 355.851,239.299 356.099,238.080 354.880 C 237.300 354.100,237.268 354.100,236.143 354.841 C 235.151 355.495,234.232 355.592,229.200 355.574 C 220.937 355.545,220.411 355.416,219.774 353.259 L 219.260 351.518 220.330 351.764 C 220.919 351.899,227.970 352.180,236.000 352.387 " stroke="none" fill="#090807" fill-rule="evenodd"></path><path id="path4" d="M148.294 67.360 C 149.380 68.548,151.539 71.383,153.093 73.660 C 154.647 75.937,157.422 79.669,159.259 81.954 C 161.097 84.239,164.439 88.549,166.688 91.531 C 168.936 94.514,171.078 97.124,171.449 97.331 C 172.441 97.886,168.642 92.547,163.814 86.600 C 158.866 80.504,154.969 75.382,152.095 71.196 C 149.684 67.683,147.493 65.200,146.806 65.200 C 146.539 65.200,147.208 66.172,148.294 67.360 M213.293 76.400 C 213.692 77.040,213.692 77.360,213.293 78.000 C 212.656 79.020,212.978 79.012,214.438 77.973 C 216.119 76.776,215.999 75.600,214.197 75.600 C 212.893 75.600,212.829 75.657,213.293 76.400 M198.733 79.179 C 198.556 81.039,199.134 81.268,201.245 80.177 C 203.109 79.213,202.724 77.838,200.544 77.679 L 198.888 77.558 198.733 79.179 M240.000 92.151 C 240.000 93.490,238.453 94.180,236.576 93.678 C 233.466 92.846,233.432 92.604,237.466 100.000 C 244.257 112.448,246.656 119.594,247.601 130.194 C 248.110 135.902,248.326 136.233,249.975 133.836 C 251.283 131.935,252.319 131.538,253.200 132.600 C 256.212 136.229,256.615 122.661,253.751 114.059 C 250.731 104.988,240.000 87.891,240.000 92.151 M181.283 104.016 C 180.833 104.736,180.966 105.053,182.451 106.814 C 184.406 109.133,184.802 109.345,183.627 107.443 C 183.165 106.697,182.563 105.437,182.289 104.645 C 181.815 103.277,181.764 103.245,181.283 104.016 M217.200 103.737 C 217.200 104.058,216.752 105.283,216.204 106.460 C 214.496 110.129,214.984 111.691,216.911 108.720 C 218.031 106.993,218.430 103.913,217.600 103.400 C 217.380 103.264,217.200 103.416,217.200 103.737 M189.487 112.900 C 190.521 114.275,191.555 115.529,191.784 115.686 C 192.013 115.843,192.990 116.453,193.955 117.042 L 195.710 118.111 194.628 116.122 C 193.003 113.137,189.714 110.400,187.753 110.400 C 187.672 110.400,188.453 111.525,189.487 112.900 M248.557 114.981 C 250.640 119.828,252.148 130.567,250.858 131.364 C 250.535 131.564,250.400 130.995,250.400 129.439 C 250.400 123.864,249.570 119.099,247.963 115.449 C 247.103 113.497,246.400 111.731,246.400 111.526 C 246.400 110.560,247.227 111.885,248.557 114.981 M187.656 118.366 C 188.175 118.787,188.671 119.061,188.757 118.975 C 189.050 118.685,187.906 117.600,187.307 117.600 C 186.901 117.600,187.012 117.844,187.656 118.366 M212.409 123.034 C 211.551 124.451,210.692 129.600,211.314 129.600 C 211.777 129.600,213.136 126.807,212.780 126.588 C 212.190 126.223,212.332 124.476,213.038 123.399 C 213.388 122.864,213.603 122.210,213.516 121.947 C 213.428 121.684,212.930 122.173,212.409 123.034 M197.206 123.056 C 197.203 123.306,197.570 123.936,198.023 124.456 C 198.669 125.198,198.758 125.229,198.436 124.600 C 197.742 123.243,197.213 122.578,197.206 123.056 M136.168 131.326 C 135.218 132.143,135.149 132.358,135.582 133.166 C 136.011 133.968,135.941 134.218,135.016 135.184 L 133.959 136.286 135.080 136.722 C 135.696 136.961,138.109 137.525,140.443 137.976 C 142.776 138.426,146.388 139.345,148.469 140.019 L 152.253 141.244 155.083 139.499 L 157.912 137.755 156.656 136.901 C 153.265 134.596,147.997 132.578,141.800 131.211 C 137.300 130.219,137.459 130.216,136.168 131.326 M143.340 134.432 C 145.866 135.103,150.924 137.234,151.600 137.912 C 152.134 138.447,152.112 138.480,151.400 138.211 C 150.960 138.045,148.746 137.202,146.479 136.337 C 144.213 135.472,141.378 134.568,140.179 134.327 C 138.981 134.086,138.000 133.758,138.000 133.596 C 138.000 133.289,140.526 133.684,143.340 134.432 M202.000 201.143 C 202.000 201.554,203.212 202.122,203.492 201.842 C 203.589 201.744,203.293 201.464,202.834 201.218 C 202.375 200.973,202.000 200.939,202.000 201.143 " stroke="none" fill="#dbdb92" fill-rule="evenodd"></path></g></svg>